<svg xmlns="http://www.w3.org/2000/svg" xmlns:xlink="http://www.w3.org/1999/xlink" width="500" zoomAndPan="magnify" viewBox="0 0 375 374.999991" height="500" preserveAspectRatio="xMidYMid meet" version="1.0"><defs><clipPath id="c2c07f823a"><path d="M 11.445312 53 L 363.195312 53 L 363.195312 322.753906 L 11.445312 322.753906 Z M 11.445312 53 " clip-rule="nonzero"/></clipPath></defs><rect x="-37.5" width="450" fill="#ffffff" y="-37.499999" height="449.999989" fill-opacity="1"/><rect x="-37.5" width="450" fill="#ffffff" y="-37.499999" height="449.999989" fill-opacity="1"/><g clip-path="url(#c2c07f823a)"><path fill="#7f5efd" d="M 339.292969 162.339844 L 339.292969 132.796875 C 339.292969 120.5 329.234375 110.441406 316.9375 110.441406 L 116.515625 110.441406 L 259.972656 94.785156 L 259.972656 68.757812 C 259.972656 63.628906 257.757812 59.21875 253.640625 56.160156 C 249.527344 53.101562 244.667969 52.25 239.757812 53.730469 L 62.484375 107.074219 C 55.746094 109.101562 51.3125 115.066406 51.3125 122.105469 L 51.3125 172.707031 L 111.542969 172.707031 C 121.867188 172.707031 130.304688 181.152344 130.304688 191.46875 C 130.304688 201.792969 121.859375 210.230469 111.542969 210.230469 L 30.207031 210.230469 C 19.890625 210.238281 11.445312 218.683594 11.445312 229 C 11.445312 239.316406 19.890625 247.761719 30.207031 247.761719 L 164.558594 247.761719 C 174.882812 247.761719 183.320312 256.207031 183.320312 266.527344 C 183.320312 276.84375 174.875 285.289062 164.558594 285.289062 L 109.910156 285.289062 C 99.585938 285.289062 91.144531 293.734375 91.144531 304.050781 C 91.144531 314.375 99.589844 322.8125 109.910156 322.8125 L 316.933594 322.8125 C 329.226562 322.8125 339.289062 312.753906 339.289062 300.457031 L 339.289062 270.917969 L 297.820312 270.917969 C 294.160156 270.917969 291.167969 267.925781 291.167969 264.265625 C 291.167969 260.605469 294.160156 257.613281 297.820312 257.613281 L 350.878906 257.613281 C 357.859375 257.613281 363.558594 251.914062 363.558594 244.933594 L 363.558594 188.324219 C 363.558594 181.339844 357.867188 175.640625 350.878906 175.640625 L 274.832031 175.640625 C 271.171875 175.640625 268.171875 172.652344 268.171875 168.988281 C 268.171875 165.328125 271.164062 162.332031 274.832031 162.332031 L 339.292969 162.332031 Z M 272.804688 204.992188 C 266.375 204.992188 261.160156 210.207031 261.160156 216.636719 C 261.160156 223.066406 266.375 228.28125 272.804688 228.28125 C 279.234375 228.28125 284.449219 223.066406 284.449219 216.636719 C 284.449219 210.199219 279.234375 204.992188 272.804688 204.992188 Z M 245.125 216.632812 C 245.125 201.40625 257.578125 188.949219 272.804688 188.949219 L 350.257812 188.949219 L 350.257812 244.3125 L 272.804688 244.3125 C 257.585938 244.3125 245.125 231.855469 245.125 216.632812 Z M 245.125 216.632812 " fill-opacity="1" fill-rule="evenodd"/></g></svg>