<svg xmlns="http://www.w3.org/2000/svg" xmlns:xlink="http://www.w3.org/1999/xlink" width="500" zoomAndPan="magnify" viewBox="0 0 375 374.999991" height="500" preserveAspectRatio="xMidYMid meet" version="1.0"><defs><g/><clipPath id="4326a2e9eb"><path d="M 107.960938 91 L 266.960938 91 L 266.960938 213.171875 L 107.960938 213.171875 Z M 107.960938 91 " clip-rule="nonzero"/></clipPath></defs><g clip-path="url(#4326a2e9eb)"><path fill="#7f5efd" d="M 256.074219 140.769531 L 256.074219 127.421875 C 256.074219 121.867188 251.53125 117.324219 245.972656 117.324219 L 155.429688 117.324219 L 220.238281 110.25 L 220.238281 98.492188 C 220.238281 96.175781 219.238281 94.183594 217.378906 92.800781 C 215.519531 91.417969 213.324219 91.03125 211.105469 91.703125 L 131.019531 115.800781 C 127.972656 116.71875 125.972656 119.414062 125.972656 122.59375 L 125.972656 145.453125 L 153.183594 145.453125 C 157.847656 145.453125 161.660156 149.265625 161.660156 153.929688 C 161.660156 158.59375 157.84375 162.40625 153.183594 162.40625 L 116.4375 162.40625 C 111.777344 162.40625 107.960938 166.222656 107.960938 170.882812 C 107.960938 175.546875 111.777344 179.359375 116.4375 179.359375 L 177.132812 179.359375 C 181.796875 179.359375 185.609375 183.175781 185.609375 187.835938 C 185.609375 192.5 181.792969 196.3125 177.132812 196.3125 L 152.445312 196.3125 C 147.78125 196.3125 143.96875 200.128906 143.96875 204.789062 C 143.96875 209.453125 147.78125 213.265625 152.445312 213.265625 L 245.972656 213.265625 C 251.527344 213.265625 256.070312 208.722656 256.070312 203.167969 L 256.070312 189.820312 L 237.335938 189.820312 C 235.683594 189.820312 234.332031 188.46875 234.332031 186.816406 C 234.332031 185.164062 235.683594 183.8125 237.335938 183.8125 L 261.308594 183.8125 C 264.460938 183.8125 267.035156 181.238281 267.035156 178.082031 L 267.035156 152.507812 C 267.035156 149.351562 264.464844 146.777344 261.308594 146.777344 L 226.953125 146.777344 C 225.296875 146.777344 223.945312 145.425781 223.945312 143.773438 C 223.945312 142.121094 225.296875 140.765625 226.953125 140.765625 L 256.074219 140.765625 Z M 226.035156 160.039062 C 223.132812 160.039062 220.773438 162.394531 220.773438 165.300781 C 220.773438 168.203125 223.132812 170.558594 226.035156 170.558594 C 228.941406 170.558594 231.296875 168.203125 231.296875 165.300781 C 231.296875 162.390625 228.941406 160.039062 226.035156 160.039062 Z M 213.53125 165.296875 C 213.53125 158.417969 219.15625 152.792969 226.035156 152.792969 L 261.027344 152.792969 L 261.027344 177.800781 L 226.035156 177.800781 C 219.160156 177.800781 213.53125 172.175781 213.53125 165.296875 Z M 213.53125 165.296875 " fill-opacity="1" fill-rule="evenodd"/></g><g fill="#00093c" fill-opacity="1"><g transform="translate(21.380151, 270.459119)"><g><path d="M 33.9375 -5.96875 L 33.9375 0 L 5.15625 0 L 5.15625 -38.375 L 33.171875 -38.375 L 33.171875 -32.40625 L 12.28125 -32.40625 L 12.28125 -22.421875 L 30.8125 -22.421875 L 30.8125 -16.5625 L 12.28125 -16.5625 L 12.28125 -5.96875 Z M 33.9375 -5.96875 "/></g></g></g><g fill="#00093c" fill-opacity="1"><g transform="translate(60.517486, 270.459119)"><g><path d="M 23.140625 0 L 15.625 -10.140625 L 8.0625 0 L 0.5 0 L 11.890625 -14.859375 L 0.984375 -29.28125 L 8.609375 -29.28125 L 15.796875 -19.6875 L 22.96875 -29.28125 L 30.375 -29.28125 L 19.40625 -14.96875 L 30.875 0 Z M 23.140625 0 "/></g></g></g><g fill="#00093c" fill-opacity="1"><g transform="translate(94.337971, 270.459119)"><g><path d="M 20.71875 -29.609375 C 23.570312 -29.609375 26.125 -28.984375 28.375 -27.734375 C 30.625 -26.492188 32.382812 -24.738281 33.65625 -22.46875 C 34.9375 -20.207031 35.578125 -17.597656 35.578125 -14.640625 C 35.578125 -11.679688 34.9375 -9.054688 33.65625 -6.765625 C 32.382812 -4.484375 30.625 -2.71875 28.375 -1.46875 C 26.125 -0.226562 23.570312 0.390625 20.71875 0.390625 C 16.769531 0.390625 13.644531 -0.925781 11.34375 -3.5625 L 11.34375 10.640625 L 4.5 10.640625 L 4.5 -29.28125 L 11.015625 -29.28125 L 11.015625 -25.4375 C 12.148438 -26.832031 13.546875 -27.875 15.203125 -28.5625 C 16.867188 -29.257812 18.707031 -29.609375 20.71875 -29.609375 Z M 19.953125 -5.484375 C 22.472656 -5.484375 24.546875 -6.320312 26.171875 -8 C 27.804688 -9.6875 28.625 -11.898438 28.625 -14.640625 C 28.625 -17.378906 27.804688 -19.585938 26.171875 -21.265625 C 24.546875 -22.953125 22.472656 -23.796875 19.953125 -23.796875 C 18.304688 -23.796875 16.828125 -23.421875 15.515625 -22.671875 C 14.203125 -21.921875 13.160156 -20.847656 12.390625 -19.453125 C 11.617188 -18.066406 11.234375 -16.460938 11.234375 -14.640625 C 11.234375 -12.804688 11.617188 -11.195312 12.390625 -9.8125 C 13.160156 -8.425781 14.203125 -7.359375 15.515625 -6.609375 C 16.828125 -5.859375 18.304688 -5.484375 19.953125 -5.484375 Z M 19.953125 -5.484375 "/></g></g></g><g fill="#00093c" fill-opacity="1"><g transform="translate(134.352316, 270.459119)"><g><path d="M 32.015625 -14.46875 C 32.015625 -14 31.976562 -13.328125 31.90625 -12.453125 L 8.9375 -12.453125 C 9.34375 -10.296875 10.394531 -8.582031 12.09375 -7.3125 C 13.789062 -6.050781 15.898438 -5.421875 18.421875 -5.421875 C 21.640625 -5.421875 24.289062 -6.484375 26.375 -8.609375 L 30.046875 -4.390625 C 28.734375 -2.816406 27.070312 -1.625 25.0625 -0.8125 C 23.050781 -0.0078125 20.78125 0.390625 18.25 0.390625 C 15.039062 0.390625 12.207031 -0.25 9.75 -1.53125 C 7.300781 -2.8125 5.410156 -4.59375 4.078125 -6.875 C 2.742188 -9.164062 2.078125 -11.753906 2.078125 -14.640625 C 2.078125 -17.492188 2.722656 -20.0625 4.015625 -22.34375 C 5.316406 -24.625 7.117188 -26.40625 9.421875 -27.6875 C 11.734375 -28.96875 14.332031 -29.609375 17.21875 -29.609375 C 20.070312 -29.609375 22.617188 -28.976562 24.859375 -27.71875 C 27.109375 -26.457031 28.863281 -24.679688 30.125 -22.390625 C 31.382812 -20.109375 32.015625 -17.46875 32.015625 -14.46875 Z M 17.21875 -24.125 C 15.019531 -24.125 13.160156 -23.472656 11.640625 -22.171875 C 10.128906 -20.878906 9.207031 -19.15625 8.875 -17 L 25.5 -17 C 25.207031 -19.113281 24.3125 -20.828125 22.8125 -22.140625 C 21.3125 -23.460938 19.445312 -24.125 17.21875 -24.125 Z M 17.21875 -24.125 "/></g></g></g><g fill="#00093c" fill-opacity="1"><g transform="translate(170.858635, 270.459119)"><g><path d="M 21.109375 -29.609375 C 24.796875 -29.609375 27.753906 -28.53125 29.984375 -26.375 C 32.210938 -24.21875 33.328125 -21.019531 33.328125 -16.78125 L 33.328125 0 L 26.484375 0 L 26.484375 -15.90625 C 26.484375 -18.457031 25.878906 -20.378906 24.671875 -21.671875 C 23.460938 -22.972656 21.742188 -23.625 19.515625 -23.625 C 16.992188 -23.625 15 -22.863281 13.53125 -21.34375 C 12.070312 -19.832031 11.34375 -17.648438 11.34375 -14.796875 L 11.34375 0 L 4.5 0 L 4.5 -29.28125 L 11.015625 -29.28125 L 11.015625 -25.5 C 12.148438 -26.851562 13.578125 -27.875 15.296875 -28.5625 C 17.015625 -29.257812 18.953125 -29.609375 21.109375 -29.609375 Z M 21.109375 -29.609375 "/></g></g></g><g fill="#00093c" fill-opacity="1"><g transform="translate(210.818163, 270.459119)"><g><path d="M 17.046875 0.546875 C 14.085938 0.546875 11.226562 0.128906 8.46875 -0.703125 C 5.707031 -1.546875 3.523438 -2.664062 1.921875 -4.0625 L 4.390625 -9.59375 C 5.960938 -8.351562 7.890625 -7.335938 10.171875 -6.546875 C 12.453125 -5.765625 14.742188 -5.375 17.046875 -5.375 C 19.898438 -5.375 22.03125 -5.828125 23.4375 -6.734375 C 24.84375 -7.648438 25.546875 -8.859375 25.546875 -10.359375 C 25.546875 -11.453125 25.148438 -12.351562 24.359375 -13.0625 C 23.578125 -13.78125 22.582031 -14.34375 21.375 -14.75 C 20.175781 -15.15625 18.535156 -15.613281 16.453125 -16.125 C 13.523438 -16.8125 11.15625 -17.503906 9.34375 -18.203125 C 7.539062 -18.898438 5.988281 -19.988281 4.6875 -21.46875 C 3.382812 -22.945312 2.734375 -24.945312 2.734375 -27.46875 C 2.734375 -29.59375 3.3125 -31.519531 4.46875 -33.25 C 5.625 -34.988281 7.359375 -36.367188 9.671875 -37.390625 C 11.992188 -38.410156 14.835938 -38.921875 18.203125 -38.921875 C 20.546875 -38.921875 22.847656 -38.628906 25.109375 -38.046875 C 27.378906 -37.460938 29.335938 -36.625 30.984375 -35.53125 L 28.734375 -29.984375 C 27.046875 -30.972656 25.285156 -31.722656 23.453125 -32.234375 C 21.628906 -32.742188 19.859375 -33 18.140625 -33 C 15.328125 -33 13.234375 -32.523438 11.859375 -31.578125 C 10.492188 -30.628906 9.8125 -29.367188 9.8125 -27.796875 C 9.8125 -26.703125 10.203125 -25.804688 10.984375 -25.109375 C 11.773438 -24.410156 12.773438 -23.859375 13.984375 -23.453125 C 15.191406 -23.054688 16.835938 -22.601562 18.921875 -22.09375 C 21.765625 -21.4375 24.097656 -20.75 25.921875 -20.03125 C 27.753906 -19.320312 29.316406 -18.234375 30.609375 -16.765625 C 31.910156 -15.304688 32.5625 -13.335938 32.5625 -10.859375 C 32.5625 -8.734375 31.984375 -6.8125 30.828125 -5.09375 C 29.679688 -3.375 27.9375 -2.003906 25.59375 -0.984375 C 23.257812 0.0351562 20.410156 0.546875 17.046875 0.546875 Z M 17.046875 0.546875 "/></g></g></g><g fill="#00093c" fill-opacity="1"><g transform="translate(247.70817, 270.459119)"><g><path d="M 31.90625 -29.28125 L 18.203125 2.359375 C 16.921875 5.535156 15.363281 7.769531 13.53125 9.0625 C 11.707031 10.363281 9.5 11.015625 6.90625 11.015625 C 5.445312 11.015625 4.003906 10.773438 2.578125 10.296875 C 1.148438 9.828125 -0.0195312 9.171875 -0.9375 8.328125 L 1.8125 3.296875 C 2.46875 3.910156 3.242188 4.398438 4.140625 4.765625 C 5.035156 5.128906 5.941406 5.3125 6.859375 5.3125 C 8.054688 5.3125 9.046875 5 9.828125 4.375 C 10.617188 3.757812 11.34375 2.722656 12 1.265625 L 12.5 0.109375 L -0.28125 -29.28125 L 6.859375 -29.28125 L 16.0625 -7.625 L 25.328125 -29.28125 Z M 31.90625 -29.28125 "/></g></g></g><g fill="#00093c" fill-opacity="1"><g transform="translate(281.802725, 270.459119)"><g><path d="M 21.109375 -29.609375 C 24.796875 -29.609375 27.753906 -28.53125 29.984375 -26.375 C 32.210938 -24.21875 33.328125 -21.019531 33.328125 -16.78125 L 33.328125 0 L 26.484375 0 L 26.484375 -15.90625 C 26.484375 -18.457031 25.878906 -20.378906 24.671875 -21.671875 C 23.460938 -22.972656 21.742188 -23.625 19.515625 -23.625 C 16.992188 -23.625 15 -22.863281 13.53125 -21.34375 C 12.070312 -19.832031 11.34375 -17.648438 11.34375 -14.796875 L 11.34375 0 L 4.5 0 L 4.5 -29.28125 L 11.015625 -29.28125 L 11.015625 -25.5 C 12.148438 -26.851562 13.578125 -27.875 15.296875 -28.5625 C 17.015625 -29.257812 18.953125 -29.609375 21.109375 -29.609375 Z M 21.109375 -29.609375 "/></g></g></g><g fill="#00093c" fill-opacity="1"><g transform="translate(321.762268, 270.459119)"><g><path d="M 17.921875 0.390625 C 14.890625 0.390625 12.164062 -0.25 9.75 -1.53125 C 7.34375 -2.8125 5.460938 -4.59375 4.109375 -6.875 C 2.753906 -9.164062 2.078125 -11.753906 2.078125 -14.640625 C 2.078125 -17.523438 2.753906 -20.097656 4.109375 -22.359375 C 5.460938 -24.628906 7.335938 -26.40625 9.734375 -27.6875 C 12.128906 -28.96875 14.859375 -29.609375 17.921875 -29.609375 C 20.816406 -29.609375 23.347656 -29.019531 25.515625 -27.84375 C 27.691406 -26.675781 29.328125 -25 30.421875 -22.8125 L 25.171875 -19.734375 C 24.328125 -21.085938 23.273438 -22.101562 22.015625 -22.78125 C 20.753906 -23.457031 19.375 -23.796875 17.875 -23.796875 C 15.3125 -23.796875 13.1875 -22.960938 11.5 -21.296875 C 9.820312 -19.640625 8.984375 -17.421875 8.984375 -14.640625 C 8.984375 -11.859375 9.816406 -9.632812 11.484375 -7.96875 C 13.148438 -6.3125 15.28125 -5.484375 17.875 -5.484375 C 19.375 -5.484375 20.753906 -5.820312 22.015625 -6.5 C 23.273438 -7.175781 24.328125 -8.191406 25.171875 -9.546875 L 30.421875 -6.46875 C 29.296875 -4.28125 27.644531 -2.585938 25.46875 -1.390625 C 23.289062 -0.203125 20.773438 0.390625 17.921875 0.390625 Z M 17.921875 0.390625 "/></g></g></g></svg>