<svg xmlns="http://www.w3.org/2000/svg" xmlns:xlink="http://www.w3.org/1999/xlink" width="1500" zoomAndPan="magnify" viewBox="0 0 1125 374.999991" height="500" preserveAspectRatio="xMidYMid meet" version="1.0"><defs><g/><clipPath id="a07648a899"><path d="M 92.027344 85.003906 L 326.027344 85.003906 L 326.027344 265.003906 L 92.027344 265.003906 Z M 92.027344 85.003906 " clip-rule="nonzero"/></clipPath></defs><g clip-path="url(#a07648a899)"><path fill="#7f5efd" d="M 310.082031 158.386719 L 310.082031 138.738281 C 310.082031 130.5625 303.390625 123.871094 295.210938 123.871094 L 161.910156 123.871094 L 257.324219 113.457031 L 257.324219 96.148438 C 257.324219 92.734375 255.851562 89.804688 253.113281 87.769531 C 250.375 85.734375 247.144531 85.167969 243.878906 86.152344 L 125.972656 121.632812 C 121.488281 122.980469 118.539062 126.945312 118.539062 131.628906 L 118.539062 165.285156 L 158.601562 165.285156 C 165.46875 165.285156 171.082031 170.902344 171.082031 177.761719 C 171.082031 184.628906 165.464844 190.242188 158.601562 190.242188 L 104.503906 190.242188 C 97.640625 190.246094 92.027344 195.863281 92.027344 202.726562 C 92.027344 209.589844 97.640625 215.207031 104.503906 215.207031 L 193.863281 215.207031 C 200.730469 215.207031 206.339844 220.820312 206.339844 227.683594 C 206.339844 234.546875 200.726562 240.164062 193.863281 240.164062 L 157.515625 240.164062 C 150.648438 240.164062 145.035156 245.78125 145.035156 252.644531 C 145.035156 259.511719 150.652344 265.121094 157.515625 265.121094 L 295.207031 265.121094 C 303.386719 265.121094 310.078125 258.433594 310.078125 250.253906 L 310.078125 230.605469 L 282.496094 230.605469 C 280.0625 230.605469 278.074219 228.617188 278.074219 226.179688 C 278.074219 223.746094 280.0625 221.757812 282.496094 221.757812 L 317.785156 221.757812 C 322.429688 221.757812 326.222656 217.96875 326.222656 213.324219 L 326.222656 175.671875 C 326.222656 171.027344 322.433594 167.238281 317.785156 167.238281 L 267.207031 167.238281 C 264.773438 167.238281 262.777344 165.246094 262.777344 162.8125 C 262.777344 160.378906 264.769531 158.382812 267.207031 158.382812 L 310.082031 158.382812 Z M 265.859375 186.757812 C 261.582031 186.757812 258.113281 190.226562 258.113281 194.503906 C 258.113281 198.78125 261.582031 202.25 265.859375 202.25 C 270.136719 202.25 273.601562 198.78125 273.601562 194.503906 C 273.601562 190.222656 270.136719 186.757812 265.859375 186.757812 Z M 247.449219 194.5 C 247.449219 184.371094 255.730469 176.089844 265.859375 176.089844 L 317.375 176.089844 L 317.375 212.910156 L 265.859375 212.910156 C 255.734375 212.910156 247.449219 204.625 247.449219 194.5 Z M 247.449219 194.5 " fill-opacity="1" fill-rule="evenodd"/></g><g fill="#00093c" fill-opacity="1"><g transform="translate(342.754524, 229.131387)"><g><path d="M 66.109375 -11.640625 L 66.109375 0 L 10.03125 0 L 10.03125 -74.765625 L 64.609375 -74.765625 L 64.609375 -63.109375 L 23.921875 -63.109375 L 23.921875 -43.6875 L 60.015625 -43.6875 L 60.015625 -32.25 L 23.921875 -32.25 L 23.921875 -11.640625 Z M 66.109375 -11.640625 "/></g></g></g><g fill="#00093c" fill-opacity="1"><g transform="translate(418.990127, 229.131387)"><g><path d="M 45.0625 0 L 30.4375 -19.75 L 15.703125 0 L 0.96875 0 L 23.171875 -28.9375 L 1.921875 -57.03125 L 16.765625 -57.03125 L 30.75 -38.34375 L 44.75 -57.03125 L 59.171875 -57.03125 L 37.8125 -29.15625 L 60.125 0 Z M 45.0625 0 "/></g></g></g><g fill="#00093c" fill-opacity="1"><g transform="translate(484.86904, 229.131387)"><g><path d="M 40.375 -57.671875 C 45.925781 -57.671875 50.890625 -56.457031 55.265625 -54.03125 C 59.640625 -51.613281 63.070312 -48.195312 65.5625 -43.78125 C 68.0625 -39.375 69.3125 -34.285156 69.3125 -28.515625 C 69.3125 -22.742188 68.0625 -17.632812 65.5625 -13.1875 C 63.070312 -8.738281 59.640625 -5.300781 55.265625 -2.875 C 50.890625 -0.457031 45.925781 0.75 40.375 0.75 C 32.675781 0.75 26.585938 -1.8125 22.109375 -6.9375 L 22.109375 20.71875 L 8.75 20.71875 L 8.75 -57.03125 L 21.46875 -57.03125 L 21.46875 -49.546875 C 23.675781 -52.253906 26.398438 -54.285156 29.640625 -55.640625 C 32.878906 -56.992188 36.457031 -57.671875 40.375 -57.671875 Z M 38.875 -10.6875 C 43.789062 -10.6875 47.832031 -12.320312 51 -15.59375 C 54.164062 -18.863281 55.75 -23.171875 55.75 -28.515625 C 55.75 -33.859375 54.164062 -38.164062 51 -41.4375 C 47.832031 -44.707031 43.789062 -46.34375 38.875 -46.34375 C 35.664062 -46.34375 32.78125 -45.613281 30.21875 -44.15625 C 27.65625 -42.695312 25.625 -40.613281 24.125 -37.90625 C 22.632812 -35.207031 21.890625 -32.078125 21.890625 -28.515625 C 21.890625 -24.953125 22.632812 -21.816406 24.125 -19.109375 C 25.625 -16.410156 27.65625 -14.332031 30.21875 -12.875 C 32.78125 -11.414062 35.664062 -10.6875 38.875 -10.6875 Z M 38.875 -10.6875 "/></g></g></g><g fill="#00093c" fill-opacity="1"><g transform="translate(562.81297, 229.131387)"><g><path d="M 62.375 -28.1875 C 62.375 -27.269531 62.300781 -25.957031 62.15625 -24.25 L 17.40625 -24.25 C 18.1875 -20.039062 20.234375 -16.707031 23.546875 -14.25 C 26.859375 -11.800781 30.972656 -10.578125 35.890625 -10.578125 C 42.148438 -10.578125 47.3125 -12.640625 51.375 -16.765625 L 58.53125 -8.546875 C 55.96875 -5.484375 52.726562 -3.164062 48.8125 -1.59375 C 44.894531 -0.03125 40.476562 0.75 35.5625 0.75 C 29.300781 0.75 23.785156 -0.492188 19.015625 -2.984375 C 14.242188 -5.484375 10.554688 -8.957031 7.953125 -13.40625 C 5.359375 -17.851562 4.0625 -22.890625 4.0625 -28.515625 C 4.0625 -34.066406 5.320312 -39.066406 7.84375 -43.515625 C 10.375 -47.960938 13.878906 -51.429688 18.359375 -53.921875 C 22.847656 -56.421875 27.90625 -57.671875 33.53125 -57.671875 C 39.082031 -57.671875 44.046875 -56.441406 48.421875 -53.984375 C 52.804688 -51.523438 56.226562 -48.070312 58.6875 -43.625 C 61.144531 -39.175781 62.375 -34.03125 62.375 -28.1875 Z M 33.53125 -46.984375 C 29.257812 -46.984375 25.644531 -45.71875 22.6875 -43.1875 C 19.738281 -40.664062 17.941406 -37.304688 17.296875 -33.109375 L 49.65625 -33.109375 C 49.09375 -37.234375 47.347656 -40.578125 44.421875 -43.140625 C 41.503906 -45.703125 37.875 -46.984375 33.53125 -46.984375 Z M 33.53125 -46.984375 "/></g></g></g><g fill="#00093c" fill-opacity="1"><g transform="translate(633.923617, 229.131387)"><g><path d="M 41.109375 -57.671875 C 48.304688 -57.671875 54.078125 -55.566406 58.421875 -51.359375 C 62.765625 -47.160156 64.9375 -40.9375 64.9375 -32.6875 L 64.9375 0 L 51.578125 0 L 51.578125 -30.96875 C 51.578125 -35.957031 50.398438 -39.710938 48.046875 -42.234375 C 45.703125 -44.765625 42.359375 -46.03125 38.015625 -46.03125 C 33.109375 -46.03125 29.226562 -44.550781 26.375 -41.59375 C 23.53125 -38.644531 22.109375 -34.390625 22.109375 -28.828125 L 22.109375 0 L 8.75 0 L 8.75 -57.03125 L 21.46875 -57.03125 L 21.46875 -49.65625 C 23.675781 -52.289062 26.453125 -54.285156 29.796875 -55.640625 C 33.140625 -56.992188 36.910156 -57.671875 41.109375 -57.671875 Z M 41.109375 -57.671875 "/></g></g></g><g fill="#00093c" fill-opacity="1"><g transform="translate(711.760771, 229.131387)"><g><path d="M 33.21875 1.0625 C 27.445312 1.0625 21.875 0.242188 16.5 -1.390625 C 11.125 -3.023438 6.867188 -5.195312 3.734375 -7.90625 L 8.546875 -18.6875 C 11.609375 -16.269531 15.363281 -14.296875 19.8125 -12.765625 C 24.257812 -11.234375 28.726562 -10.46875 33.21875 -10.46875 C 38.769531 -10.46875 42.914062 -11.359375 45.65625 -13.140625 C 48.394531 -14.921875 49.765625 -17.269531 49.765625 -20.1875 C 49.765625 -22.320312 49 -24.082031 47.46875 -25.46875 C 45.9375 -26.851562 43.992188 -27.9375 41.640625 -28.71875 C 39.296875 -29.507812 36.097656 -30.398438 32.046875 -31.390625 C 26.347656 -32.742188 21.734375 -34.097656 18.203125 -35.453125 C 14.679688 -36.804688 11.65625 -38.925781 9.125 -41.8125 C 6.601562 -44.695312 5.34375 -48.59375 5.34375 -53.5 C 5.34375 -57.632812 6.460938 -61.390625 8.703125 -64.765625 C 10.941406 -68.148438 14.320312 -70.835938 18.84375 -72.828125 C 23.363281 -74.828125 28.898438 -75.828125 35.453125 -75.828125 C 40.015625 -75.828125 44.5 -75.253906 48.90625 -74.109375 C 53.320312 -72.972656 57.132812 -71.335938 60.34375 -69.203125 L 55.96875 -58.421875 C 52.6875 -60.335938 49.265625 -61.796875 45.703125 -62.796875 C 42.148438 -63.796875 38.695312 -64.296875 35.34375 -64.296875 C 29.863281 -64.296875 25.785156 -63.367188 23.109375 -61.515625 C 20.441406 -59.660156 19.109375 -57.203125 19.109375 -54.140625 C 19.109375 -52.003906 19.875 -50.257812 21.40625 -48.90625 C 22.9375 -47.5625 24.875 -46.492188 27.21875 -45.703125 C 29.570312 -44.921875 32.78125 -44.035156 36.84375 -43.046875 C 42.394531 -41.753906 46.953125 -40.414062 50.515625 -39.03125 C 54.078125 -37.644531 57.117188 -35.523438 59.640625 -32.671875 C 62.171875 -29.828125 63.4375 -25.984375 63.4375 -21.140625 C 63.4375 -17.015625 62.3125 -13.273438 60.0625 -9.921875 C 57.820312 -6.578125 54.425781 -3.910156 49.875 -1.921875 C 45.320312 0.0664062 39.769531 1.0625 33.21875 1.0625 Z M 33.21875 1.0625 "/></g></g></g><g fill="#00093c" fill-opacity="1"><g transform="translate(783.618804, 229.131387)"><g><path d="M 62.15625 -57.03125 L 35.453125 4.59375 C 32.960938 10.789062 29.9375 15.148438 26.375 17.671875 C 22.8125 20.203125 18.503906 21.46875 13.453125 21.46875 C 10.609375 21.46875 7.796875 21.003906 5.015625 20.078125 C 2.242188 19.148438 -0.03125 17.867188 -1.8125 16.234375 L 3.53125 6.40625 C 4.8125 7.613281 6.320312 8.570312 8.0625 9.28125 C 9.8125 10 11.570312 10.359375 13.34375 10.359375 C 15.695312 10.359375 17.640625 9.753906 19.171875 8.546875 C 20.703125 7.335938 22.109375 5.304688 23.390625 2.453125 L 24.34375 0.21875 L -0.53125 -57.03125 L 13.34375 -57.03125 L 31.296875 -14.84375 L 49.34375 -57.03125 Z M 62.15625 -57.03125 "/></g></g></g><g fill="#00093c" fill-opacity="1"><g transform="translate(850.031578, 229.131387)"><g><path d="M 41.109375 -57.671875 C 48.304688 -57.671875 54.078125 -55.566406 58.421875 -51.359375 C 62.765625 -47.160156 64.9375 -40.9375 64.9375 -32.6875 L 64.9375 0 L 51.578125 0 L 51.578125 -30.96875 C 51.578125 -35.957031 50.398438 -39.710938 48.046875 -42.234375 C 45.703125 -44.765625 42.359375 -46.03125 38.015625 -46.03125 C 33.109375 -46.03125 29.226562 -44.550781 26.375 -41.59375 C 23.53125 -38.644531 22.109375 -34.390625 22.109375 -28.828125 L 22.109375 0 L 8.75 0 L 8.75 -57.03125 L 21.46875 -57.03125 L 21.46875 -49.65625 C 23.675781 -52.289062 26.453125 -54.285156 29.796875 -55.640625 C 33.140625 -56.992188 36.910156 -57.671875 41.109375 -57.671875 Z M 41.109375 -57.671875 "/></g></g></g><g fill="#00093c" fill-opacity="1"><g transform="translate(927.86876, 229.131387)"><g><path d="M 34.921875 0.75 C 29.015625 0.75 23.710938 -0.492188 19.015625 -2.984375 C 14.316406 -5.484375 10.648438 -8.957031 8.015625 -13.40625 C 5.378906 -17.851562 4.0625 -22.890625 4.0625 -28.515625 C 4.0625 -34.140625 5.378906 -39.15625 8.015625 -43.5625 C 10.648438 -47.976562 14.296875 -51.429688 18.953125 -53.921875 C 23.617188 -56.421875 28.941406 -57.671875 34.921875 -57.671875 C 40.546875 -57.671875 45.472656 -56.53125 49.703125 -54.25 C 53.941406 -51.96875 57.128906 -48.691406 59.265625 -44.421875 L 49.015625 -38.453125 C 47.378906 -41.078125 45.332031 -43.046875 42.875 -44.359375 C 40.414062 -45.679688 37.726562 -46.34375 34.8125 -46.34375 C 29.832031 -46.34375 25.703125 -44.722656 22.421875 -41.484375 C 19.148438 -38.242188 17.515625 -33.921875 17.515625 -28.515625 C 17.515625 -23.097656 19.132812 -18.769531 22.375 -15.53125 C 25.613281 -12.300781 29.757812 -10.6875 34.8125 -10.6875 C 37.726562 -10.6875 40.414062 -11.34375 42.875 -12.65625 C 45.332031 -13.96875 47.378906 -15.941406 49.015625 -18.578125 L 59.265625 -12.609375 C 57.066406 -8.328125 53.847656 -5.03125 49.609375 -2.71875 C 45.367188 -0.40625 40.472656 0.75 34.921875 0.75 Z M 34.921875 0.75 "/></g></g></g></svg>