<svg width="491" height="491" viewBox="0 0 491 491" fill="none" xmlns="http://www.w3.org/2000/svg">
<mask id="mask0_16002_3975" style="mask-type:luminance" maskUnits="userSpaceOnUse" x="0" y="0" width="491" height="491">
<path d="M0 0H490.667V490.667H0V0Z" fill="white"/>
</mask>
<g mask="url(#mask0_16002_3975)">
<path d="M245.333 490.667C380.827 490.667 490.667 380.827 490.667 245.333C490.667 109.839 380.827 0 245.333 0C109.839 0 0 109.839 0 245.333C0 380.827 109.839 490.667 245.333 490.667Z" fill="white"/>
<g filter="url(#filter0_d_16002_3975)">
<path d="M409.536 154.292H81.129C65.9614 154.292 53.666 166.52 53.666 181.604V309.063C53.666 324.147 65.9614 336.375 81.129 336.375H409.536C424.704 336.375 436.999 324.147 436.999 309.063V181.604C436.999 166.52 424.704 154.292 409.536 154.292Z" fill="#9810FA" fill-opacity="0.4"/>
</g>
<path fill-rule="evenodd" clip-rule="evenodd" d="M105.231 205.648C106.282 205.42 107.354 205.306 108.429 205.307C115.86 205.307 121.884 210.683 121.884 217.314C121.884 217.78 121.855 218.241 121.796 218.694C121.693 219.601 121.464 221.029 121.109 222.974C120.596 225.749 120.062 228.519 119.507 231.285C119.378 231.927 119.031 232.505 118.525 232.92C118.018 233.335 117.383 233.562 116.729 233.561H116.22C115.858 233.562 115.499 233.487 115.167 233.344C114.834 233.2 114.535 232.989 114.287 232.725C114.04 232.46 113.849 232.148 113.728 231.807C113.606 231.466 113.555 231.103 113.58 230.742L113.742 228.35C112.046 228.997 110.245 229.327 108.429 229.322C107.844 229.322 107.267 229.289 106.701 229.224L106.54 230.991C106.475 231.694 106.15 232.347 105.628 232.823C105.106 233.298 104.425 233.562 103.719 233.561H103.473C103.127 233.561 102.785 233.491 102.468 233.354C102.151 233.218 101.865 233.018 101.628 232.766C101.39 232.515 101.207 232.218 101.089 231.893C100.971 231.568 100.921 231.223 100.941 230.878L100.958 230.583C101.074 228.484 100.064 226.853 99.0503 225.923C97.8605 224.9 96.8809 223.655 96.1657 222.259H94.9754C94.6039 222.259 94.2359 222.186 93.8925 222.045C93.5491 221.903 93.2369 221.695 92.9739 221.433C92.7108 221.17 92.502 220.859 92.3594 220.516C92.2168 220.173 92.1431 219.805 92.1426 219.433V216.608C92.1436 215.858 92.4426 215.139 92.9738 214.609C93.5051 214.079 94.225 213.781 94.9754 213.782H95.5667C96.4465 211.228 98.2548 209.036 100.64 207.522V204.479C100.64 204.198 100.723 203.924 100.878 203.691C101.034 203.458 101.256 203.277 101.515 203.17C101.774 203.063 102.059 203.035 102.333 203.09C102.608 203.146 102.86 203.281 103.058 203.48L105.231 205.648ZM101.348 216.608C102.522 216.608 103.473 215.659 103.473 214.489C103.473 214.211 103.418 213.935 103.311 213.677C103.204 213.42 103.047 213.186 102.85 212.989C102.653 212.792 102.418 212.636 102.161 212.53C101.903 212.424 101.627 212.369 101.348 212.369C100.175 212.369 99.2247 213.318 99.2247 214.489C99.2247 215.659 100.175 216.608 101.348 216.608ZM122.593 211.019C122.314 211.02 122.038 210.965 121.78 210.859C121.523 210.752 121.289 210.597 121.092 210.4C120.894 210.203 120.738 209.969 120.631 209.712C120.524 209.455 120.468 209.179 120.468 208.9C120.468 207.73 121.419 206.78 122.593 206.78C123.766 206.78 124.717 207.73 124.717 208.9C124.717 209.179 124.662 209.455 124.555 209.712C124.448 209.969 124.291 210.203 124.094 210.4C123.897 210.597 123.662 210.752 123.405 210.859C123.147 210.965 122.871 211.02 122.593 211.019Z" fill="#9810FA"/>
<path d="M148.062 232.389C141.808 232.389 137.69 229.441 137.369 224.548L137.35 224.265H142.016L142.054 224.491C142.412 226.834 144.812 228.289 148.231 228.289C151.67 228.289 153.824 226.759 153.824 224.416V224.397C153.824 222.357 152.407 221.261 148.893 220.524L145.965 219.919C140.599 218.805 137.954 216.311 137.954 212.249V212.23C137.973 207.431 142.186 204.181 148.062 204.181C154.013 204.181 157.905 207.318 158.189 211.984L158.208 212.305H153.541L153.503 212.079C153.181 209.699 151.084 208.281 148.024 208.281C144.831 208.3 142.848 209.792 142.848 211.966V211.984C142.848 213.911 144.34 215.045 147.627 215.725L150.575 216.33C156.242 217.501 158.718 219.806 158.718 224.057V224.076C158.718 229.158 154.712 232.389 148.062 232.389ZM167.804 232.257C163.8 232.257 161.098 229.781 161.098 226.211V226.173C161.098 222.622 163.856 220.486 168.712 220.184L173.945 219.863V218.484C173.945 216.462 172.623 215.234 170.242 215.234C168.012 215.234 166.653 216.274 166.35 217.747L166.312 217.917H161.948L161.967 217.69C162.25 214.138 165.33 211.474 170.412 211.474C175.418 211.474 178.649 214.119 178.649 218.143V231.917H173.945V228.837H173.831C172.68 230.934 170.449 232.257 167.804 232.257ZM165.783 226.022C165.783 227.665 167.143 228.667 169.203 228.667C171.904 228.667 173.945 226.872 173.945 224.491V222.98L169.373 223.264C167.049 223.415 165.783 224.416 165.783 226.003V226.022ZM187.774 231.917L180.69 211.89H185.697L190.344 227.552H190.458L195.086 211.89H199.999L192.951 231.917H187.774ZM204.665 209.018C203.191 209.018 202.039 207.847 202.039 206.449C202.039 205.013 203.191 203.86 204.665 203.86C206.139 203.86 207.272 205.013 207.272 206.449C207.271 206.789 207.202 207.126 207.07 207.439C206.938 207.753 206.745 208.037 206.503 208.276C206.261 208.515 205.974 208.703 205.658 208.83C205.343 208.958 205.005 209.022 204.665 209.018ZM202.304 231.917V211.89H207.008V231.917H202.304ZM211.013 231.917V211.89H215.717V215.026H215.812C216.851 212.873 218.891 211.474 221.933 211.474C226.335 211.474 228.847 214.308 228.847 218.956V231.917H224.144V219.901C224.144 217.048 222.821 215.442 220.138 215.442C217.437 215.442 215.717 217.406 215.717 220.298V231.917H211.013ZM241.657 238.926C236.348 238.926 233.005 236.508 232.437 233.371L232.4 233.202H237.029L237.085 233.352C237.595 234.505 239.201 235.374 241.657 235.374C244.718 235.374 246.399 233.749 246.399 231.199V228.308H246.305C245.19 230.443 242.923 231.803 240.051 231.803C235.026 231.803 231.795 227.949 231.795 221.714V221.696C231.795 215.366 235.064 211.474 240.127 211.474C242.961 211.474 245.153 212.986 246.286 215.29H246.399V211.89H251.104V231.35C251.104 235.884 247.457 238.926 241.657 238.926ZM241.525 228.176C244.454 228.176 246.418 225.701 246.418 221.809V221.79C246.418 217.917 244.435 215.442 241.525 215.442C238.503 215.442 236.594 217.879 236.594 221.771V221.79C236.594 225.738 238.503 228.176 241.525 228.176ZM262.779 232.313C257.527 232.313 254.523 229.82 254.108 226.098L254.089 225.928H258.718L258.755 226.098C259.114 227.817 260.418 228.837 262.798 228.837C265.085 228.837 266.464 227.912 266.464 226.438V226.419C266.464 225.209 265.764 224.53 263.687 224.057L260.361 223.32C256.526 222.47 254.599 220.6 254.599 217.634V217.614C254.599 213.95 257.792 211.474 262.629 211.474C267.616 211.474 270.525 214.214 270.696 217.671L270.714 217.879H266.332L266.313 217.728C266.105 216.122 264.82 214.951 262.629 214.951C260.55 214.951 259.247 215.914 259.247 217.388V217.406C259.247 218.559 260.021 219.315 262.1 219.787L265.443 220.524C269.581 221.45 271.187 223.075 271.187 225.984V226.003C271.187 229.781 267.692 232.313 262.779 232.313Z" fill="#9810FA"/>
<path d="M83.2088 277.043C82.4728 277.043 81.916 276.443 81.916 275.709C81.916 274.93 82.4728 274.375 83.2088 274.375H85.7934C85.7482 273.761 85.7258 273.146 85.7264 272.53C85.7264 271.864 85.7484 271.219 85.8155 270.597H83.2088C82.4728 270.597 81.916 269.996 81.916 269.263C81.916 268.485 82.4728 267.929 83.2088 267.929H86.195C87.7542 260.839 92.9905 256.46 100.098 256.46C106.071 256.46 110.46 259.372 112.332 264.062C112.555 264.595 112.644 265.151 112.644 265.595C112.644 266.685 111.909 267.418 110.839 267.418C109.881 267.418 109.212 266.884 108.767 265.773C107.274 262.084 103.976 260.172 100.098 260.172C95.4199 260.172 91.8099 263.105 90.4059 267.929H102.35C103.107 267.929 103.664 268.485 103.664 269.263C103.664 269.996 103.107 270.597 102.35 270.597H89.8932C89.8405 271.24 89.8107 271.885 89.8041 272.53C89.8041 273.175 89.8271 273.775 89.8932 274.375H102.35C103.107 274.375 103.664 274.93 103.664 275.709C103.664 276.443 103.107 277.043 102.35 277.043H90.3839C91.7207 281.954 95.3528 284.91 100.121 284.91C103.998 284.91 107.341 283.51 108.834 279.821C109.279 278.709 109.903 278.176 110.862 278.176C111.931 278.176 112.622 278.865 112.622 279.954C112.622 280.399 112.555 280.954 112.332 281.487C110.349 286.445 105.447 288.622 100.098 288.622C92.9014 288.622 87.6871 284.243 86.172 277.043H83.2088ZM137.167 288.979C136.03 288.979 135.228 288.133 135.228 286.911V260.883H135.139L129.123 265.084C128.677 265.396 128.253 265.551 127.764 265.551C126.827 265.551 126.181 264.884 126.181 263.907C126.181 263.195 126.449 262.728 127.295 262.128L134.181 257.216C135.428 256.327 135.963 256.105 136.877 256.105C138.258 256.105 139.106 256.949 139.106 258.349V286.911C139.106 288.133 138.303 288.979 137.167 288.979ZM158.308 289.112C150.798 289.112 146.453 282.666 146.453 272.53C146.453 262.484 150.843 255.971 158.308 255.971C165.772 255.971 170.117 262.439 170.117 272.508C170.117 282.643 165.794 289.112 158.308 289.112ZM158.308 285.622C163.321 285.622 166.085 280.532 166.085 272.53C166.085 264.64 163.277 259.483 158.308 259.483C153.339 259.483 150.486 264.684 150.486 272.508C150.486 280.51 153.272 285.622 158.308 285.622ZM185.754 289.112C178.245 289.112 173.9 282.666 173.9 272.53C173.9 262.484 178.29 255.971 185.754 255.971C193.219 255.971 197.564 262.439 197.564 272.508C197.564 282.643 193.242 289.112 185.754 289.112ZM185.754 285.622C190.768 285.622 193.531 280.532 193.531 272.53C193.531 264.64 190.723 259.483 185.754 259.483C180.785 259.483 177.933 264.684 177.933 272.508C177.933 280.51 180.718 285.622 185.754 285.622ZM204.176 283.421C205.313 283.421 206.115 284.088 206.115 285.178C206.115 285.577 206.071 285.911 205.937 286.4L203.887 294.046C203.642 295.002 203.13 295.446 202.194 295.446C201.302 295.446 200.611 294.935 200.611 294.046C200.611 293.713 200.656 293.49 200.678 293.357L202.261 285.111C202.506 283.888 203.13 283.421 204.176 283.421ZM223.669 289.112C216.159 289.112 211.814 282.666 211.814 272.53C211.814 262.484 216.204 255.971 223.669 255.971C231.133 255.971 235.478 262.439 235.478 272.508C235.478 282.643 231.155 289.112 223.669 289.112ZM223.669 285.622C228.682 285.622 231.446 280.532 231.446 272.53C231.446 264.64 228.638 259.483 223.669 259.483C218.7 259.483 215.848 264.684 215.848 272.508C215.848 280.51 218.633 285.622 223.669 285.622ZM251.116 289.112C243.607 289.112 239.261 282.666 239.261 272.53C239.261 262.484 243.651 255.971 251.116 255.971C258.581 255.971 262.926 262.439 262.926 272.508C262.926 282.643 258.603 289.112 251.116 289.112ZM251.116 285.622C256.13 285.622 258.892 280.532 258.892 272.53C258.892 264.64 256.084 259.483 251.116 259.483C246.147 259.483 243.295 264.684 243.295 272.508C243.295 280.51 246.079 285.622 251.116 285.622ZM278.562 289.112C271.054 289.112 266.709 282.666 266.709 272.53C266.709 262.484 271.098 255.971 278.562 255.971C286.028 255.971 290.373 262.439 290.373 272.508C290.373 282.643 286.051 289.112 278.562 289.112ZM278.562 285.622C283.577 285.622 286.338 280.532 286.338 272.53C286.338 264.64 283.531 259.483 278.562 259.483C273.593 259.483 270.741 264.684 270.741 272.508C270.741 280.51 273.526 285.622 278.562 285.622ZM297.051 288.8C296.717 288.805 296.385 288.742 296.076 288.616C295.766 288.49 295.485 288.304 295.248 288.068C295.012 287.832 294.825 287.551 294.698 287.242C294.572 286.932 294.508 286.601 294.512 286.267C294.508 285.932 294.572 285.601 294.698 285.291C294.825 284.982 295.012 284.701 295.248 284.465C295.485 284.229 295.766 284.043 296.076 283.917C296.385 283.791 296.717 283.728 297.051 283.733C297.386 283.728 297.717 283.791 298.027 283.916C298.337 284.042 298.619 284.229 298.855 284.465C299.092 284.701 299.279 284.982 299.406 285.291C299.533 285.601 299.596 285.932 299.593 286.267C299.596 286.601 299.533 286.932 299.406 287.242C299.279 287.551 299.092 287.832 298.855 288.068C298.619 288.304 298.337 288.491 298.027 288.616C297.717 288.742 297.386 288.805 297.051 288.8ZM313.667 277.545C308.786 277.545 305.961 273.355 305.961 266.766C305.961 260.236 308.816 256.003 313.667 256.003C318.52 256.003 321.342 260.207 321.342 266.752C321.342 273.34 318.533 277.545 313.667 277.545ZM313.667 275.276C316.925 275.276 318.723 271.968 318.723 266.766C318.723 261.638 316.897 258.286 313.667 258.286C310.438 258.286 308.583 261.667 308.583 266.752C308.583 271.954 310.394 275.276 313.667 275.276ZM330.287 277.545C325.407 277.545 322.581 273.355 322.581 266.766C322.581 260.236 325.436 256.003 330.287 256.003C335.137 256.003 337.963 260.207 337.963 266.752C337.963 273.34 335.154 277.545 330.287 277.545ZM330.287 275.276C333.546 275.276 335.341 271.968 335.341 266.766C335.341 261.638 333.518 258.286 330.287 258.286C327.058 258.286 325.203 261.667 325.203 266.752C325.203 271.954 327.013 275.276 330.287 275.276Z" fill="#00093C"/>
<g filter="url(#filter1_d_16002_3975)">
<path d="M373.053 452.334C350.346 452.334 332.541 434.983 332.541 412.813C332.541 390.643 350.719 372.3 373.053 372.3C395.387 372.3 413.564 390.478 413.564 412.813C413.564 435.148 395.78 452.334 373.053 452.334Z" fill="#FAAA00"/>
<path d="M373.053 377.945C353.8 377.945 338.145 393.601 338.145 412.854C338.145 432.108 353.468 446.709 373.053 446.709C392.636 446.709 407.96 431.839 407.96 412.854C407.96 393.87 392.306 377.945 373.053 377.945Z" fill="#FF7819"/>
<path d="M373.053 379.642C354.275 379.642 339.014 394.904 339.014 413.682C339.014 432.46 353.966 446.709 373.053 446.709C392.141 446.709 407.092 432.212 407.092 413.682C407.092 395.152 391.83 379.642 373.053 379.642Z" fill="#FAC800"/>
<path d="M390.32 388.038L348.464 429.895C346.984 427.887 345.781 425.689 344.887 423.36L383.724 384.521C386.066 385.402 388.284 386.584 390.32 388.038ZM402.481 406.278L367.242 441.517C361.162 440.4 355.723 437.546 351.546 433.452L393.96 391.035C398.252 395.156 401.219 400.463 402.481 406.278Z" fill="#FAAA00" fill-opacity="0.3"/>
<path d="M374.284 353.24C373.521 353.24 372.922 350.159 372.922 346.376V267.532C372.922 263.727 373.541 260.667 374.284 260.667C375.026 260.667 375.645 263.748 375.645 267.532V346.354C375.645 350.159 375.026 353.22 374.284 353.22V353.24ZM387.509 359.074C386.746 359.074 386.148 357.894 386.148 356.444V304.917C386.148 303.467 386.766 302.286 387.509 302.286C388.251 302.286 388.87 303.467 388.87 304.917V356.444C388.87 357.894 388.251 359.074 387.509 359.074Z" fill="#9810FA" fill-opacity="0.75"/>
</g>
<g filter="url(#filter2_d_16002_3975)">
<path d="M55.4695 102.585C54.8591 102.585 54.3809 101.197 54.3809 99.467V41.4514C54.3809 39.7226 54.8754 38.333 55.4686 38.333C56.0627 38.333 56.5563 39.7226 56.5563 41.4514V99.467C56.5563 101.197 56.0627 102.585 55.4695 102.585ZM66.7089 102.585C66.1396 102.585 65.694 101.706 65.694 100.625V73.6533C65.694 72.5723 66.1549 71.6926 66.7089 71.6926C67.2628 71.6926 67.7247 72.5723 67.7247 73.6533V100.625C67.7247 101.706 67.2628 102.585 66.7089 102.585Z" fill="#9810FA" fill-opacity="0.75"/>
<path d="M54.4184 117.919C48.1567 123.841 44.1777 137.862 44.9185 153.963C45.6737 170.064 50.9483 183.653 57.7343 188.958L57.8579 191.658L70.828 191.056C80.4822 190.608 87.2682 173.458 86.2658 152.035C85.2634 130.612 76.9048 114.172 67.2496 114.634L54.2795 115.235L54.4031 117.934L54.4184 117.919Z" fill="#FAC800"/>
<path d="M73.3116 152.636C74.314 174.059 67.528 191.209 57.8728 191.657C48.1419 192.12 39.4124 175.339 38.4253 154.271C37.4383 133.203 44.5635 115.682 54.2953 115.235C63.9496 114.788 72.3091 131.214 73.3116 152.636Z" fill="#FAAA00"/>
<path d="M40.8773 154.148C41.7254 172.301 49.2369 186.752 57.6261 186.367C65.8927 185.981 71.7069 171.221 70.8434 152.744C69.98 134.283 62.8241 120.124 54.5422 120.51C46.152 120.896 40.0292 135.994 40.8773 154.148Z" fill="#FF7819"/>
<path d="M70.7057 161.89C70.2591 167.427 69.1484 172.332 67.5442 176.234C67.1129 177.298 66.6347 178.285 66.1258 179.195C65.3237 180.629 64.4296 181.848 63.4732 182.803C61.8229 184.485 59.9724 185.442 57.9676 185.534C49.7776 185.919 42.4521 171.823 41.6184 154.117C41.4191 149.783 41.6184 145.634 42.1742 141.824C42.462 139.721 42.8898 137.64 43.4546 135.594C43.7938 134.344 44.1637 133.172 44.5806 132.062C46.1072 128.005 48.1427 124.874 50.5031 123.054C51.8908 121.99 53.3867 121.389 54.9593 121.312C63.0256 120.941 70.0119 134.745 70.8447 152.76C70.9938 155.803 70.9474 158.852 70.7057 161.89Z" fill="#FAC800"/>
<path d="M66.1245 179.195C65.3233 180.629 64.4282 181.847 63.4728 182.804L42.1738 141.825C42.4615 139.721 42.8892 137.64 43.4542 135.594L66.1245 179.195ZM70.7044 161.89C70.2578 167.427 69.1471 172.332 67.5428 176.235L44.5792 132.062C46.1059 128.005 48.1414 124.875 50.5017 123.055L70.7044 161.89Z" fill="#FAAA00" fill-opacity="0.3"/>
</g>
</g>
<defs>
<filter id="filter0_d_16002_3975" x="37.666" y="154.292" width="415.334" height="214.083" filterUnits="userSpaceOnUse" color-interpolation-filters="sRGB">
<feFlood flood-opacity="0" result="BackgroundImageFix"/>
<feColorMatrix in="SourceAlpha" type="matrix" values="0 0 0 0 0 0 0 0 0 0 0 0 0 0 0 0 0 0 127 0" result="hardAlpha"/>
<feOffset dy="16"/>
<feGaussianBlur stdDeviation="8"/>
<feComposite in2="hardAlpha" operator="out"/>
<feColorMatrix type="matrix" values="0 0 0 0 0 0 0 0 0 0 0 0 0 0 0 0 0 0 0.1 0"/>
<feBlend mode="normal" in2="BackgroundImageFix" result="effect1_dropShadow_16002_3975"/>
<feBlend mode="normal" in="SourceGraphic" in2="effect1_dropShadow_16002_3975" result="shape"/>
</filter>
<filter id="filter1_d_16002_3975" x="316.541" y="260.667" width="113.023" height="223.667" filterUnits="userSpaceOnUse" color-interpolation-filters="sRGB">
<feFlood flood-opacity="0" result="BackgroundImageFix"/>
<feColorMatrix in="SourceAlpha" type="matrix" values="0 0 0 0 0 0 0 0 0 0 0 0 0 0 0 0 0 0 127 0" result="hardAlpha"/>
<feOffset dy="16"/>
<feGaussianBlur stdDeviation="8"/>
<feComposite in2="hardAlpha" operator="out"/>
<feColorMatrix type="matrix" values="0 0 0 0 0 0 0 0 0 0 0 0 0 0 0 0 0 0 0.1 0"/>
<feBlend mode="normal" in2="BackgroundImageFix" result="effect1_dropShadow_16002_3975"/>
<feBlend mode="normal" in="SourceGraphic" in2="effect1_dropShadow_16002_3975" result="shape"/>
</filter>
<filter id="filter2_d_16002_3975" x="22.334" y="38.333" width="80.0293" height="185.333" filterUnits="userSpaceOnUse" color-interpolation-filters="sRGB">
<feFlood flood-opacity="0" result="BackgroundImageFix"/>
<feColorMatrix in="SourceAlpha" type="matrix" values="0 0 0 0 0 0 0 0 0 0 0 0 0 0 0 0 0 0 127 0" result="hardAlpha"/>
<feOffset dy="16"/>
<feGaussianBlur stdDeviation="8"/>
<feComposite in2="hardAlpha" operator="out"/>
<feColorMatrix type="matrix" values="0 0 0 0 0 0 0 0 0 0 0 0 0 0 0 0 0 0 0.1 0"/>
<feBlend mode="normal" in2="BackgroundImageFix" result="effect1_dropShadow_16002_3975"/>
<feBlend mode="normal" in="SourceGraphic" in2="effect1_dropShadow_16002_3975" result="shape"/>
</filter>
</defs>
</svg>
