<svg width="552" height="549" viewBox="0 0 552 549" fill="none" xmlns="http://www.w3.org/2000/svg">
<mask id="mask0_16002_3670" style="mask-type:luminance" maskUnits="userSpaceOnUse" x="30" y="30" width="492" height="492">
<path d="M30.666 30.6665H521.333V521.333H30.666V30.6665Z" fill="white"/>
</mask>
<g mask="url(#mask0_16002_3670)">
<path d="M275.999 521.333C411.493 521.333 521.333 411.494 521.333 276C521.333 140.506 411.493 30.6665 275.999 30.6665C140.505 30.6665 30.666 140.506 30.666 276C30.666 411.494 140.505 521.333 275.999 521.333Z" fill="white"/>
<path fill-rule="evenodd" clip-rule="evenodd" d="M266.676 444.311C272.089 439.044 272.055 428.997 275.344 428.736C279.318 428.635 279.9 438.384 284.319 441.978C288.738 445.573 299.221 446.129 298.982 449.911C298.741 453.695 291.684 454.372 285.553 459.692C279.969 464.5 280.208 474.613 276.954 474.695C272.398 474.81 272.5 466.932 267.636 461.248C262.771 455.562 253.316 455.835 253.008 452.957C252.699 450.078 261.709 449.068 266.676 444.311Z" fill="url(#paint0_radial_16002_3670)"/>
<path fill-rule="evenodd" clip-rule="evenodd" d="M379.091 56.7753C381.065 52.1715 378.82 46.0066 380.987 45.0415C383.153 44.0774 386.015 50.0383 389.602 51.2726C393.19 52.5079 399.866 50.5021 400.604 52.9305C401.342 55.3599 397.047 57.3896 394.418 62.097C391.789 66.8033 394.604 72.631 392.464 73.4695C389.623 74.5841 387.882 69.5998 383.564 67.1589C379.246 64.7171 373.34 67.0343 372.49 65.2997C371.639 63.5651 377.099 60.9259 379.091 56.7753Z" fill="url(#paint1_radial_16002_3670)"/>
<g filter="url(#filter0_d_16002_3670)">
<path d="M440.202 85.2915H111.795C96.6274 85.2915 84.332 97.5198 84.332 112.604V240.062C84.332 255.147 96.6274 267.375 111.795 267.375H440.202C455.37 267.375 467.665 255.147 467.665 240.062V112.604C467.665 97.5198 455.37 85.2915 440.202 85.2915Z" fill="#9810FA" fill-opacity="0.4"/>
</g>
<path fill-rule="evenodd" clip-rule="evenodd" d="M135.898 137.227C136.948 137 138.02 136.885 139.095 136.886C146.526 136.886 152.55 142.252 152.55 148.871C152.55 149.337 152.521 149.796 152.462 150.247C152.359 151.154 152.13 152.578 151.775 154.521C151.262 157.289 150.728 160.054 150.173 162.815C150.044 163.456 149.696 164.033 149.19 164.447C148.683 164.861 148.049 165.086 147.395 165.085H146.886C146.524 165.086 146.166 165.013 145.834 164.869C145.502 164.726 145.202 164.516 144.955 164.252C144.707 163.988 144.516 163.677 144.394 163.336C144.272 162.995 144.222 162.633 144.246 162.272L144.408 159.885C142.712 160.531 140.911 160.86 139.095 160.856C138.51 160.856 137.933 160.822 137.367 160.757L137.206 162.521C137.14 163.223 136.815 163.875 136.293 164.35C135.771 164.824 135.091 165.087 134.385 165.085H134.139C133.794 165.086 133.452 165.016 133.135 164.88C132.818 164.744 132.532 164.544 132.294 164.293C132.057 164.043 131.874 163.746 131.756 163.422C131.638 163.097 131.587 162.752 131.607 162.408L131.624 162.113C131.74 160.019 130.73 158.391 129.716 157.464C128.527 156.442 127.547 155.2 126.832 153.806H125.641C124.892 153.807 124.173 153.511 123.641 152.982C123.11 152.454 122.811 151.736 122.809 150.986V148.166C122.811 147.416 123.11 146.698 123.641 146.17C124.173 145.641 124.892 145.345 125.641 145.346H126.233C127.112 142.796 128.921 140.609 131.306 139.098V136.06C131.308 135.781 131.392 135.508 131.548 135.277C131.705 135.045 131.926 134.865 132.184 134.758C132.442 134.652 132.726 134.624 133 134.678C133.274 134.733 133.526 134.867 133.724 135.063L135.898 137.227ZM132.014 148.166C132.293 148.166 132.569 148.112 132.826 148.006C133.083 147.9 133.317 147.745 133.515 147.548C133.712 147.352 133.869 147.119 133.976 146.862C134.083 146.605 134.138 146.329 134.139 146.051C134.138 145.772 134.083 145.497 133.976 145.24C133.869 144.983 133.712 144.75 133.515 144.554C133.317 144.357 133.083 144.202 132.826 144.096C132.568 143.99 132.293 143.936 132.014 143.937C131.736 143.936 131.46 143.99 131.203 144.096C130.946 144.202 130.712 144.358 130.515 144.554C130.317 144.75 130.161 144.983 130.054 145.24C129.947 145.497 129.891 145.772 129.891 146.051C129.891 147.219 130.841 148.166 132.014 148.166ZM153.259 142.588C152.98 142.589 152.705 142.535 152.447 142.429C152.19 142.323 151.956 142.167 151.758 141.971C151.561 141.774 151.404 141.541 151.297 141.284C151.19 141.027 151.135 140.752 151.134 140.473C151.134 139.305 152.085 138.358 153.259 138.358C154.432 138.358 155.383 139.305 155.383 140.473C155.383 140.752 155.327 141.027 155.22 141.284C155.113 141.541 154.956 141.774 154.759 141.971C154.562 142.167 154.328 142.323 154.07 142.429C153.813 142.535 153.537 142.589 153.259 142.588Z" fill="#9810FA"/>
<path d="M178.728 163.389C172.474 163.389 168.356 160.441 168.035 155.548L168.016 155.265H172.682L172.72 155.491C173.078 157.834 175.478 159.289 178.897 159.289C182.336 159.289 184.49 157.759 184.49 155.416V155.397C184.49 153.357 183.073 152.261 179.559 151.524L176.631 150.919C171.265 149.805 168.62 147.311 168.62 143.249V143.23C168.639 138.431 172.852 135.181 178.728 135.181C184.679 135.181 188.571 138.318 188.855 142.984L188.874 143.305H184.207L184.169 143.079C183.847 140.699 181.75 139.281 178.69 139.281C175.497 139.3 173.514 140.792 173.514 142.966V142.984C173.514 144.911 175.006 146.045 178.293 146.725L181.241 147.33C186.908 148.501 189.384 150.806 189.384 155.057V155.076C189.384 160.158 185.378 163.389 178.728 163.389ZM198.471 163.257C194.466 163.257 191.764 160.781 191.764 157.211V157.173C191.764 153.622 194.522 151.486 199.378 151.184L204.611 150.863V149.484C204.611 147.462 203.289 146.234 200.908 146.234C198.678 146.234 197.319 147.274 197.016 148.747L196.978 148.917H192.614L192.633 148.69C192.916 145.138 195.996 142.474 201.078 142.474C206.084 142.474 209.315 145.119 209.315 149.143V162.917H204.611V159.837H204.497C203.346 161.934 201.116 163.257 198.471 163.257ZM196.449 157.022C196.449 158.665 197.809 159.667 199.869 159.667C202.57 159.667 204.611 157.872 204.611 155.491V153.98L200.039 154.264C197.715 154.415 196.449 155.416 196.449 157.003V157.022ZM218.44 162.917L211.356 142.89H216.363L221.01 158.552H221.124L225.752 142.89H230.665L223.617 162.917H218.44ZM235.331 140.018C233.857 140.018 232.705 138.847 232.705 137.449C232.705 136.013 233.857 134.86 235.331 134.86C236.805 134.86 237.938 136.013 237.938 137.449C237.937 137.789 237.868 138.126 237.736 138.439C237.604 138.753 237.411 139.037 237.169 139.276C236.927 139.515 236.64 139.703 236.324 139.83C236.009 139.958 235.671 140.022 235.331 140.018ZM232.97 162.917V142.89H237.674V162.917H232.97ZM241.679 162.917V142.89H246.383V146.026H246.478C247.517 143.873 249.557 142.474 252.599 142.474C257.001 142.474 259.513 145.308 259.513 149.956V162.917H254.81V150.901C254.81 148.048 253.487 146.442 250.804 146.442C248.103 146.442 246.383 148.406 246.383 151.298V162.917H241.679ZM272.324 169.926C267.014 169.926 263.671 167.508 263.103 164.371L263.066 164.202H267.695L267.751 164.352C268.261 165.505 269.867 166.374 272.324 166.374C275.384 166.374 277.065 164.749 277.065 162.199V159.308H276.971C275.856 161.443 273.589 162.803 270.717 162.803C265.692 162.803 262.461 158.949 262.461 152.714V152.696C262.461 146.366 265.73 142.474 270.793 142.474C273.627 142.474 275.819 143.986 276.952 146.29H277.065V142.89H281.77V162.35C281.77 166.884 278.123 169.926 272.324 169.926ZM272.191 159.176C275.12 159.176 277.084 156.701 277.084 152.809V152.79C277.084 148.917 275.101 146.442 272.191 146.442C269.169 146.442 267.26 148.879 267.26 152.771V152.79C267.26 156.738 269.169 159.176 272.191 159.176ZM293.445 163.313C288.194 163.313 285.189 160.82 284.774 157.098L284.755 156.928H289.384L289.421 157.098C289.781 158.817 291.084 159.837 293.464 159.837C295.751 159.837 297.13 158.912 297.13 157.438V157.419C297.13 156.209 296.43 155.53 294.353 155.057L291.027 154.32C287.192 153.47 285.265 151.6 285.265 148.634V148.614C285.265 144.95 288.458 142.474 293.295 142.474C298.282 142.474 301.191 145.214 301.362 148.671L301.38 148.879H296.998L296.979 148.728C296.771 147.122 295.486 145.951 293.295 145.951C291.216 145.951 289.913 146.914 289.913 148.388V148.406C289.913 149.559 290.687 150.315 292.766 150.787L296.109 151.524C300.247 152.45 301.853 154.075 301.853 156.984V157.003C301.853 160.781 298.358 163.313 293.445 163.313Z" fill="#9810FA"/>
<path d="M113.876 208.483C113.141 208.483 112.584 207.883 112.584 207.152C112.584 206.375 113.141 205.821 113.876 205.821H116.46C116.416 205.208 116.393 204.594 116.393 203.979C116.393 203.314 116.416 202.671 116.482 202.049H113.876C113.141 202.049 112.584 201.451 112.584 200.719C112.584 199.942 113.141 199.388 113.876 199.388H116.862C118.421 192.31 123.658 187.94 130.766 187.94C136.738 187.94 141.128 190.847 143 195.528C143.222 196.059 143.311 196.614 143.311 197.058C143.311 198.145 142.576 198.877 141.506 198.877C140.548 198.877 139.88 198.345 139.434 197.235C137.941 193.553 134.643 191.645 130.766 191.645C126.087 191.645 122.477 194.574 121.073 199.388H133.017C133.775 199.388 134.331 199.942 134.331 200.719C134.331 201.451 133.775 202.049 133.017 202.049H120.561C120.516 202.671 120.471 203.314 120.471 203.979C120.471 204.623 120.494 205.222 120.561 205.821H133.017C133.775 205.821 134.331 206.375 134.331 207.152C134.331 207.883 133.775 208.483 133.017 208.483H121.051C122.388 213.385 126.02 216.336 130.788 216.336C134.666 216.336 138.008 214.939 139.501 211.256C139.946 210.147 140.57 209.614 141.529 209.614C142.598 209.614 143.289 210.302 143.289 211.389C143.293 211.913 143.195 212.433 143 212.919C141.016 217.866 136.114 220.041 130.766 220.041C123.568 220.041 118.355 215.67 116.839 208.483H113.876ZM167.834 220.395C166.697 220.395 165.895 219.552 165.895 218.332V192.355H165.806L159.79 196.548C159.344 196.859 158.92 197.014 158.431 197.014C157.494 197.014 156.848 196.349 156.848 195.372C156.848 194.662 157.116 194.196 157.962 193.597L164.848 188.695C166.095 187.807 166.63 187.586 167.544 187.586C168.925 187.586 169.773 188.428 169.773 189.826V218.332C169.773 219.552 168.97 220.395 167.834 220.395ZM188.975 220.529C181.465 220.529 177.12 214.095 177.12 203.979C177.12 193.952 181.51 187.453 188.975 187.453C196.439 187.453 200.784 193.908 200.784 203.957C200.784 214.073 196.462 220.529 188.975 220.529ZM188.975 217.046C193.989 217.046 196.752 211.966 196.752 203.979C196.752 196.104 193.944 190.957 188.975 190.957C184.006 190.957 181.154 196.149 181.154 203.957C181.154 211.944 183.939 217.046 188.975 217.046ZM216.421 220.529C208.912 220.529 204.567 214.095 204.567 203.979C204.567 193.952 208.957 187.453 216.421 187.453C223.886 187.453 228.231 193.908 228.231 203.957C228.231 214.073 223.909 220.529 216.421 220.529ZM216.421 217.046C221.435 217.046 224.198 211.966 224.198 203.979C224.198 196.104 221.39 190.957 216.421 190.957C211.452 190.957 208.6 196.149 208.6 203.957C208.6 211.944 211.385 217.046 216.421 217.046ZM234.844 214.849C235.98 214.849 236.783 215.516 236.783 216.602C236.783 217.001 236.738 217.333 236.605 217.822L234.554 225.453C234.31 226.407 233.797 226.851 232.861 226.851C231.969 226.851 231.278 226.341 231.278 225.453C231.278 225.121 231.323 224.899 231.345 224.765L232.928 216.535C233.173 215.315 233.797 214.849 234.844 214.849ZM254.336 220.529C246.827 220.529 242.481 214.095 242.481 203.979C242.481 193.952 246.871 187.453 254.336 187.453C261.801 187.453 266.146 193.908 266.146 203.957C266.146 214.073 261.823 220.529 254.336 220.529ZM254.336 217.046C259.35 217.046 262.113 211.966 262.113 203.979C262.113 196.104 259.305 190.957 254.336 190.957C249.367 190.957 246.515 196.149 246.515 203.957C246.515 211.944 249.3 217.046 254.336 217.046ZM281.783 220.529C274.274 220.529 269.929 214.095 269.929 203.979C269.929 193.952 274.318 187.453 281.783 187.453C289.248 187.453 293.593 193.908 293.593 203.957C293.593 214.073 289.27 220.529 281.783 220.529ZM281.783 217.046C286.797 217.046 289.559 211.966 289.559 203.979C289.559 196.104 286.751 190.957 281.783 190.957C276.814 190.957 273.962 196.149 273.962 203.957C273.962 211.944 276.746 217.046 281.783 217.046ZM309.23 220.529C301.721 220.529 297.376 214.095 297.376 203.979C297.376 193.952 301.765 187.453 309.23 187.453C316.695 187.453 321.04 193.908 321.04 203.957C321.04 214.073 316.718 220.529 309.23 220.529ZM309.23 217.046C314.244 217.046 317.005 211.966 317.005 203.979C317.005 196.104 314.199 190.957 309.23 190.957C304.26 190.957 301.408 196.149 301.408 203.957C301.408 211.944 304.194 217.046 309.23 217.046ZM327.718 220.218C326.292 220.218 325.179 219.108 325.179 217.689C325.179 216.269 326.292 215.16 327.718 215.16C329.144 215.16 330.26 216.269 330.26 217.689C330.26 219.108 329.144 220.218 327.718 220.218ZM344.334 208.984C339.453 208.984 336.629 204.802 336.629 198.227C336.629 191.71 339.483 187.485 344.334 187.485C349.187 187.485 352.01 191.681 352.01 198.213C352.01 204.788 349.201 208.984 344.334 208.984ZM344.334 206.72C347.592 206.72 349.39 203.418 349.39 198.227C349.39 193.109 347.565 189.763 344.334 189.763C341.105 189.763 339.25 193.137 339.25 198.213C339.25 203.404 341.062 206.72 344.334 206.72ZM360.954 208.984C356.074 208.984 353.249 204.802 353.249 198.227C353.249 191.71 356.103 187.485 360.954 187.485C365.805 187.485 368.631 191.681 368.631 198.213C368.631 204.788 365.822 208.984 360.954 208.984ZM360.954 206.72C364.213 206.72 366.009 203.418 366.009 198.227C366.009 193.109 364.185 189.763 360.954 189.763C357.726 189.763 355.87 193.137 355.87 198.213C355.87 203.404 357.68 206.72 360.954 206.72Z" fill="#00093C"/>
<g filter="url(#filter1_d_16002_3670)">
<path d="M341.166 423.393L343.404 429.122L373.898 440.832H387.536L505.467 379.796L503.63 374.053L472.736 362.357H459.575L341.166 423.393Z" fill="#FAAA00"/>
<path d="M505.463 379.788L505.992 261.638L358.855 315.85L369.403 429.602L387.532 440.755L505.463 379.788Z" fill="#FAC800"/>
<path d="M343.695 422.637L343.404 310.489L380.992 320.871L381.61 437.97L373.6 440.755L343.404 429.124L343.695 422.637Z" fill="#FF7819"/>
<path d="M384.139 321.855V440.833H374.027V321.855H384.139Z" fill="white"/>
<path d="M343.694 429.759V309.86L341.166 304.136V423.308L343.694 429.759Z" fill="#FF7819"/>
<path d="M341.166 304.426L342.992 310.164L374.452 321.855H387.836L502.513 263.964L505.467 260.086L502.513 256.09L500.905 253.072L474.832 243.38H461.448L341.166 304.426Z" fill="#FAAA00"/>
<path d="M388.697 312.813L424.45 303.402L463.026 283.736L389.193 300.581L388.697 312.813ZM469.997 270.943L502.517 263.965L506.001 261.639C506.001 261.639 505.706 256.692 503.678 254.66C502.244 253.224 499.032 252.334 499.032 252.334L465.352 256.986L469.997 270.943Z" fill="#FF7819"/>
<path d="M472.953 191.41C470.279 185.685 466.033 180.871 460.728 177.548C454.582 173.825 447.436 172.091 440.267 172.582C432.638 173.088 425.21 175.239 418.491 178.887C405.033 186.173 393.623 196.829 385.338 209.848C376.835 222.216 372.029 236.823 371.5 251.907V308.69C371.5 311.756 377.146 314.261 384.235 314.261C391.324 314.261 396.97 311.756 396.97 308.69C397.01 308.447 397.01 308.199 396.97 307.956V251.82C397.552 241.782 400.906 232.113 406.648 223.925C412.568 214.604 420.681 206.931 430.25 201.601C437.466 197.887 444.258 196.98 447.95 199.269C449.471 200.636 450.646 202.344 451.38 204.252C452.119 206.17 452.398 208.235 452.195 210.28V266.415C452.151 266.658 452.151 266.907 452.195 267.15C452.195 270.216 457.841 272.72 464.93 272.72C472.019 272.72 477.41 270.259 477.664 267.236V210.366C477.542 203.773 475.931 197.293 472.953 191.41Z" fill="#FAC800"/>
<path d="M420.056 177.896C412.478 181.969 402.515 186.965 396.541 193.348C392.144 198.005 388.224 203.091 384.839 208.528C376.637 220.862 372.004 235.438 371.5 250.491V308.726C371.5 310.623 373.628 312.262 376.615 313.254V250.189C376.615 228.625 385.715 212.68 397.99 195.342C403.377 188.508 412.798 182.418 420.056 177.896ZM438.637 198.699C440.953 198.134 444.527 197.466 446.642 198.699C447.963 200.054 448.937 199.896 449.58 201.802C450.223 203.708 450.467 205.763 450.29 207.8V265.992C450.27 266.235 450.27 266.48 450.29 266.723C450.29 268.571 452.103 270.247 454.914 271.02V212.828C454.767 190.61 438.637 198.699 438.637 198.699Z" fill="#FF7819"/>
<path d="M458.676 181.137C454.211 178.471 449.032 177.247 443.846 177.633C437.593 178.08 431.51 179.873 426.014 182.889C413.982 189.468 403.789 199.071 396.396 210.793C388.937 221.617 384.682 234.405 384.137 247.633V314.26C385.793 314.132 387.431 314.289 389.023 313.806V247.633C389.564 235.38 393.552 223.546 400.511 213.553C407.411 202.534 416.939 193.489 428.2 187.27C439.001 181.662 449.161 180.962 456.105 185.298C459.216 187.567 461.683 190.606 463.263 194.117C464.859 197.653 465.523 201.539 465.192 205.405V272.727C467.143 272.727 468.485 272.831 470.078 272.348V205.361C470.163 194.41 465.877 185.736 458.676 181.137Z" fill="white"/>
</g>
<g filter="url(#filter2_d_16002_3670)">
<path fill-rule="evenodd" clip-rule="evenodd" d="M125.568 336.697C132.784 329.6 132.739 316.2 137.124 315.851C142.423 315.718 143.199 328.766 149.091 333.577C154.984 338.389 168.916 339.136 168.642 344.199C168.368 349.261 158.912 350.166 150.736 357.24C143.29 363.723 143.61 377.021 139.271 377.13C133.195 377.283 133.332 366.74 126.846 359.081C120.36 351.423 107.753 351.883 107.342 347.982C106.931 344.082 118.944 343.16 125.568 336.697Z" fill="url(#paint2_radial_16002_3670)"/>
</g>
</g>
<defs>
<filter id="filter0_d_16002_3670" x="68.332" y="85.2915" width="415.334" height="214.083" filterUnits="userSpaceOnUse" color-interpolation-filters="sRGB">
<feFlood flood-opacity="0" result="BackgroundImageFix"/>
<feColorMatrix in="SourceAlpha" type="matrix" values="0 0 0 0 0 0 0 0 0 0 0 0 0 0 0 0 0 0 127 0" result="hardAlpha"/>
<feOffset dy="16"/>
<feGaussianBlur stdDeviation="8"/>
<feComposite in2="hardAlpha" operator="out"/>
<feColorMatrix type="matrix" values="0 0 0 0 0 0 0 0 0 0 0 0 0 0 0 0 0 0 0.1 0"/>
<feBlend mode="normal" in2="BackgroundImageFix" result="effect1_dropShadow_16002_3670"/>
<feBlend mode="normal" in="SourceGraphic" in2="effect1_dropShadow_16002_3670" result="shape"/>
</filter>
<filter id="filter1_d_16002_3670" x="325.166" y="172.5" width="196.836" height="300.333" filterUnits="userSpaceOnUse" color-interpolation-filters="sRGB">
<feFlood flood-opacity="0" result="BackgroundImageFix"/>
<feColorMatrix in="SourceAlpha" type="matrix" values="0 0 0 0 0 0 0 0 0 0 0 0 0 0 0 0 0 0 127 0" result="hardAlpha"/>
<feOffset dy="16"/>
<feGaussianBlur stdDeviation="8"/>
<feComposite in2="hardAlpha" operator="out"/>
<feColorMatrix type="matrix" values="0 0 0 0 0 0 0 0 0 0 0 0 0 0 0 0 0 0 0.1 0"/>
<feBlend mode="normal" in2="BackgroundImageFix" result="effect1_dropShadow_16002_3670"/>
<feBlend mode="normal" in="SourceGraphic" in2="effect1_dropShadow_16002_3670" result="shape"/>
</filter>
<filter id="filter2_d_16002_3670" x="91.332" y="315.85" width="93.3145" height="93.2812" filterUnits="userSpaceOnUse" color-interpolation-filters="sRGB">
<feFlood flood-opacity="0" result="BackgroundImageFix"/>
<feColorMatrix in="SourceAlpha" type="matrix" values="0 0 0 0 0 0 0 0 0 0 0 0 0 0 0 0 0 0 127 0" result="hardAlpha"/>
<feOffset dy="16"/>
<feGaussianBlur stdDeviation="8"/>
<feComposite in2="hardAlpha" operator="out"/>
<feColorMatrix type="matrix" values="0 0 0 0 0 0 0 0 0 0 0 0 0 0 0 0 0 0 0.1 0"/>
<feBlend mode="normal" in2="BackgroundImageFix" result="effect1_dropShadow_16002_3670"/>
<feBlend mode="normal" in="SourceGraphic" in2="effect1_dropShadow_16002_3670" result="shape"/>
</filter>
<radialGradient id="paint0_radial_16002_3670" cx="0" cy="0" r="1" gradientUnits="userSpaceOnUse" gradientTransform="translate(275.992 451.72) rotate(-1.44114) scale(23 22.9927)">
<stop stop-color="#FAC800"/>
<stop offset="0.5" stop-color="#FAAA00"/>
<stop offset="1" stop-color="#FAC800"/>
</radialGradient>
<radialGradient id="paint1_radial_16002_3670" cx="0" cy="0" r="1" gradientUnits="userSpaceOnUse" gradientTransform="translate(386.614 59.2996) rotate(-21.419) scale(15.3333 15.3286)">
<stop stop-color="#FAC800"/>
<stop offset="0.5" stop-color="#FAAA00"/>
<stop offset="1" stop-color="#FAC800"/>
</radialGradient>
<radialGradient id="paint2_radial_16002_3670" cx="0" cy="0" r="1" gradientUnits="userSpaceOnUse" gradientTransform="translate(137.976 346.465) rotate(-1.441) scale(30.6667 30.657)">
<stop stop-color="#FAC800"/>
<stop offset="0.5" stop-color="#FAAA00"/>
<stop offset="1" stop-color="#FAC800"/>
</radialGradient>
</defs>
</svg>
