<svg width="491" height="491" viewBox="0 0 491 491" fill="none" xmlns="http://www.w3.org/2000/svg">
<mask id="mask0_16002_3806" style="mask-type:luminance" maskUnits="userSpaceOnUse" x="0" y="0" width="491" height="491">
<path d="M0 0H490.667V490.667H0V0Z" fill="white"/>
</mask>
<g mask="url(#mask0_16002_3806)">
<path d="M245.333 490.667C380.827 490.667 490.667 380.827 490.667 245.333C490.667 109.839 380.827 0 245.333 0C109.839 0 0 109.839 0 245.333C0 380.827 109.839 490.667 245.333 490.667Z" fill="white"/>
<g filter="url(#filter0_d_16002_3806)">
<path d="M409.536 154.292H81.129C65.9614 154.292 53.666 166.52 53.666 181.604V309.062C53.666 324.147 65.9614 336.375 81.129 336.375H409.536C424.704 336.375 436.999 324.147 436.999 309.062V181.604C436.999 166.52 424.704 154.292 409.536 154.292Z" fill="#9810FA" fill-opacity="0.4"/>
</g>
<path fill-rule="evenodd" clip-rule="evenodd" d="M95.3593 201.11L94.5859 198.872H91.0947C90.7411 198.872 90.4018 198.732 90.1515 198.482C89.9012 198.232 89.7603 197.893 89.7598 197.539C89.7598 196.804 90.3578 196.208 91.0947 196.208H95.4139C95.7113 196.181 96.0093 196.254 96.2604 196.415C96.5114 196.577 96.701 196.818 96.7987 197.101L97.3776 198.778L109.541 198.667L122.439 198.784C122.637 198.784 122.832 198.825 123.013 198.905C123.194 198.984 123.356 199.101 123.49 199.247C123.623 199.393 123.724 199.566 123.787 199.753C123.849 199.941 123.872 200.139 123.853 200.336C123.872 200.526 123.852 200.721 123.787 200.914L118.105 218.05C118.009 218.34 117.821 218.591 117.571 218.766C117.32 218.941 117.02 219.031 116.715 219.021L116.66 219.022H102.421L102.367 219.021C102.061 219.031 101.761 218.941 101.51 218.766C101.26 218.591 101.073 218.34 100.976 218.05L95.3593 201.11ZM102.282 205.722H117.665C117.842 205.727 118.019 205.696 118.185 205.631C118.351 205.566 118.502 205.469 118.629 205.345C118.757 205.22 118.858 205.072 118.927 204.908C118.997 204.744 119.032 204.568 119.032 204.39C119.032 204.212 118.997 204.036 118.927 203.872C118.858 203.708 118.757 203.56 118.629 203.436C118.502 203.312 118.351 203.214 118.185 203.149C118.019 203.085 117.842 203.054 117.665 203.059H102.282C101.545 203.059 100.947 203.655 100.947 204.391C100.947 205.126 101.545 205.722 102.282 205.722ZM104.233 212.167H115.713C115.891 212.171 116.068 212.14 116.234 212.076C116.4 212.011 116.551 211.914 116.678 211.789C116.806 211.665 116.907 211.517 116.976 211.353C117.046 211.189 117.081 211.013 117.081 210.835C117.081 210.657 117.046 210.481 116.976 210.317C116.907 210.153 116.806 210.005 116.678 209.88C116.551 209.756 116.4 209.659 116.234 209.594C116.068 209.529 115.891 209.499 115.713 209.503H104.233C103.497 209.503 102.899 210.099 102.899 210.834C102.899 211.57 103.497 212.167 104.233 212.167ZM114.164 225.398C113.898 225.399 113.634 225.347 113.388 225.245C113.142 225.144 112.918 224.995 112.73 224.807C112.542 224.619 112.392 224.395 112.29 224.15C112.188 223.904 112.135 223.64 112.135 223.374C112.135 222.257 113.043 221.35 114.164 221.35C115.285 221.35 116.193 222.257 116.193 223.374C116.192 223.64 116.14 223.904 116.037 224.15C115.935 224.395 115.786 224.619 115.597 224.807C115.409 224.995 115.185 225.144 114.939 225.245C114.693 225.347 114.43 225.399 114.164 225.398ZM105.783 225.398C105.517 225.399 105.253 225.347 105.007 225.245C104.761 225.144 104.538 224.995 104.349 224.807C104.161 224.619 104.011 224.395 103.909 224.15C103.807 223.904 103.755 223.64 103.754 223.374C103.754 222.257 104.663 221.35 105.783 221.35C106.904 221.35 107.813 222.257 107.813 223.374C107.813 223.64 107.76 223.904 107.658 224.15C107.556 224.396 107.406 224.619 107.217 224.807C107.029 224.995 106.805 225.144 106.559 225.245C106.313 225.347 106.049 225.399 105.783 225.398Z" fill="#9810FA"/>
<path d="M138.482 224.25V196.987H155.864V201.087H143.357V209.154H154.787V213.122H143.357V224.25H138.482ZM165.763 224.647C161.362 224.647 158.849 221.813 158.849 217.165V204.224H163.553V216.239C163.553 219.073 164.876 220.679 167.558 220.679C170.26 220.679 171.979 218.733 171.979 215.823V204.224H176.684V224.25H171.979V221.113H171.885C170.845 223.249 168.787 224.647 165.763 224.647ZM180.557 224.25V204.224H185.261V207.359H185.355C186.394 205.206 188.435 203.808 191.476 203.808C195.879 203.808 198.392 206.642 198.392 211.289V224.25H193.687V212.234C193.687 209.381 192.365 207.775 189.682 207.775C186.98 207.775 185.261 209.74 185.261 212.631V224.25H180.557ZM210.389 224.25V196.987H216.018L224.369 217.807H224.501L232.852 196.987H238.483V224.25H234.099V204.866H233.948L226.088 224.25H222.782L214.923 204.866H214.791V224.25H210.389ZM251.688 224.647C245.794 224.647 241.997 220.717 241.997 214.236V214.199C241.997 207.775 245.85 203.808 251.669 203.808C257.507 203.808 261.381 207.738 261.381 214.199V214.236C261.381 220.736 257.564 224.647 251.688 224.647ZM251.708 220.849C254.674 220.849 256.582 218.431 256.582 214.236V214.199C256.582 210.024 254.654 207.624 251.669 207.624C248.742 207.624 246.795 210.043 246.795 214.199V214.236C246.795 218.45 248.703 220.849 251.708 220.849ZM264.404 224.25V204.224H269.108V207.359H269.202C270.242 205.206 272.282 203.808 275.324 203.808C279.725 203.808 282.238 206.642 282.238 211.289V224.25H277.534V212.234C277.534 209.381 276.211 207.775 273.529 207.775C270.827 207.775 269.108 209.74 269.108 212.631V224.25H264.404ZM294.821 224.647C288.813 224.647 285.186 220.66 285.186 214.294V214.275C285.186 207.964 288.87 203.808 294.594 203.808C300.319 203.808 303.871 207.832 303.871 213.878V215.389H289.852C289.928 218.903 291.855 220.981 294.916 220.981C297.258 220.981 298.789 219.734 299.242 218.394L299.28 218.261H303.682L303.625 218.468C303.001 221.548 300.055 224.647 294.821 224.647ZM294.651 207.492C292.157 207.492 290.287 209.173 289.909 212.253H299.298C298.958 209.079 297.145 207.492 294.651 207.492ZM308.84 230.9C307.933 230.9 306.988 230.787 306.422 230.693V227.103C306.78 227.179 307.328 227.273 307.99 227.273C309.785 227.273 310.786 226.763 311.391 225.081L311.673 224.269L304.475 204.224H309.614L314.3 220.245H314.432L319.136 204.224H324.087L316.888 224.93C315.358 229.332 313.015 230.9 308.84 230.9Z" fill="#9810FA"/>
<path d="M82.0703 262.822V260.554H85.8011C85.7629 260.045 85.744 259.535 85.7446 259.024V258.986C85.7446 258.419 85.7637 257.871 85.8203 257.342H82.0703V255.076H86.1796C87.6957 248.708 92.98 245.78 99.0213 245.78C100.309 245.78 101.995 245.95 102.715 246.196V249.257C101.958 249.067 100.309 248.916 99.0213 248.916C94.6273 248.916 91.1045 250.881 89.7974 255.076H99.9873V257.342H89.3431C89.2822 257.907 89.2506 258.475 89.2482 259.043V259.08C89.2482 259.59 89.2674 260.082 89.3239 260.554H99.9873V262.822H89.7408C91.0096 267.129 94.5708 269.113 99.0213 269.113C100.309 269.113 101.958 268.999 102.715 268.772V271.833C101.995 272.097 100.309 272.249 99.0213 272.249C92.9225 272.249 87.62 269.264 86.1423 262.822H82.0703ZM112.019 272.646V270.303L121.641 260.29C125.334 256.455 126.187 254.981 126.187 252.713V252.676C126.168 249.899 124.065 247.896 121.092 247.896C117.683 247.896 115.144 250.239 115.144 253.167V253.261H111.849V253.148C111.849 248.425 115.94 244.93 121.035 244.93C125.978 244.93 129.596 248.236 129.596 252.506V252.544C129.596 255.529 128.213 257.777 123.194 262.897L116.698 269.547V269.623H130.05V272.646H112.019ZM139.636 272.646V248.992H139.561L132.326 254.018V250.597L139.599 245.383H142.932V272.646H139.636ZM158.068 273.099C151.779 273.099 148.049 267.677 148.049 259.024V258.986C148.049 250.333 151.779 244.93 158.068 244.93C164.357 244.93 168.126 250.333 168.126 258.986V259.024C168.126 267.677 164.357 273.099 158.068 273.099ZM158.068 270.133C162.235 270.133 164.697 265.864 164.697 259.024V258.986C164.697 252.147 162.235 247.915 158.068 247.915C153.901 247.915 151.477 252.147 151.477 258.986V259.024C151.477 265.864 153.901 270.133 158.068 270.133ZM171.935 272.91C171.651 272.914 171.369 272.861 171.106 272.754C170.842 272.647 170.603 272.489 170.402 272.288C170.201 272.088 170.041 271.849 169.934 271.586C169.826 271.323 169.772 271.041 169.775 270.757C169.775 269.547 170.723 268.602 171.935 268.602C173.147 268.602 174.094 269.547 174.094 270.757C174.097 271.041 174.043 271.323 173.936 271.586C173.828 271.849 173.669 272.087 173.468 272.288C173.267 272.489 173.028 272.647 172.764 272.754C172.501 272.861 172.219 272.914 171.935 272.91ZM188.51 273.099C182.714 273.099 178.585 269.849 178.585 265.277V265.24C178.585 261.877 180.953 259.08 184.457 258.268V258.193C181.464 257.267 179.57 255 179.57 252.128V252.09C179.57 247.971 183.339 244.93 188.51 244.93C193.681 244.93 197.45 247.971 197.45 252.09V252.128C197.45 255 195.555 257.267 192.563 258.193V258.268C196.067 259.08 198.434 261.877 198.434 265.24V265.277C198.434 269.849 194.306 273.099 188.51 273.099ZM188.51 256.927C191.805 256.927 194.059 255.056 194.059 252.411V252.374C194.059 249.729 191.805 247.858 188.51 247.858C185.214 247.858 182.961 249.729 182.961 252.374V252.411C182.961 255.056 185.214 256.927 188.51 256.927ZM188.51 270.133C192.279 270.133 194.969 268.017 194.969 265.07V265.032C194.969 262.046 192.298 259.912 188.51 259.912C184.721 259.912 182.051 262.046 182.051 265.032V265.07C182.051 268.017 184.74 270.133 188.51 270.133ZM210.559 273.099C204.27 273.099 200.539 267.677 200.539 259.024V258.986C200.539 250.333 204.27 244.93 210.559 244.93C216.846 244.93 220.616 250.333 220.616 258.986V259.024C220.616 267.677 216.846 273.099 210.559 273.099ZM210.559 270.133C214.726 270.133 217.188 265.864 217.188 259.024V258.986C217.188 252.147 214.726 247.915 210.559 247.915C206.392 247.915 203.967 252.147 203.967 258.986V259.024C203.967 265.864 206.392 270.133 210.559 270.133Z" fill="#00093C"/>
<path d="M84.4611 291.993C83.8626 291.992 83.2698 292.109 82.7166 292.337C82.1633 292.566 81.6605 292.901 81.2368 293.324C80.8131 293.746 80.4769 294.248 80.2472 294.801C80.0176 295.354 79.8991 295.946 79.8984 296.545C79.8991 297.143 80.0176 297.736 80.2472 298.288C80.4769 298.841 80.8131 299.343 81.2368 299.766C81.6605 300.189 82.1633 300.524 82.7166 300.752C83.2698 300.98 83.8626 301.098 84.4611 301.097V291.993ZM170.036 301.097H174.6V291.993H170.036V301.097ZM84.4611 301.097H170.036V291.993H84.4611V301.097Z" fill="#00093C"/>
<path d="M170.035 291.993H165.473V301.097H170.035V291.993ZM215.67 301.097C216.269 301.098 216.862 300.98 217.415 300.752C217.968 300.524 218.471 300.189 218.895 299.766C219.318 299.343 219.655 298.841 219.885 298.289C220.114 297.736 220.233 297.143 220.234 296.545C220.233 295.946 220.114 295.354 219.885 294.801C219.655 294.248 219.318 293.746 218.895 293.324C218.471 292.901 217.968 292.566 217.415 292.337C216.862 292.109 216.269 291.992 215.67 291.993V301.097ZM170.035 301.097H215.67V291.993H170.035V301.097Z" fill="#00093C"/>
<path d="M215.671 291.993H211.107V301.097H215.671V291.993ZM399.369 301.097C399.968 301.098 400.561 300.98 401.114 300.752C401.667 300.524 402.17 300.189 402.594 299.766C403.017 299.343 403.354 298.841 403.584 298.289C403.813 297.736 403.932 297.143 403.933 296.545C403.932 295.946 403.814 295.354 403.584 294.801C403.354 294.248 403.018 293.746 402.594 293.323C402.17 292.901 401.667 292.565 401.114 292.337C400.561 292.109 399.968 291.992 399.369 291.993V301.097ZM215.671 301.097H399.369V291.993H215.671V301.097Z" fill="#9810FA"/>
<g filter="url(#filter1_d_16002_3806)">
<path d="M473.004 152.422C474.128 120.057 440.619 92.4631 398.158 90.788C355.698 89.1118 320.366 113.99 319.242 146.354C318.119 178.719 351.628 206.313 394.088 207.988C436.549 209.664 471.881 184.786 473.004 152.422Z" fill="#FAAA00"/>
<path d="M470.33 149.996C471.4 118.887 439.042 92.3703 398.057 90.7689C357.072 89.1666 322.979 113.086 321.909 144.194C320.839 175.302 353.196 201.819 394.182 203.42C435.167 205.022 469.26 181.103 470.33 149.996Z" fill="#FF7819"/>
<path d="M453.151 144.87C454.094 119.058 429.33 97.0737 397.839 95.7666C366.348 94.4594 340.055 114.324 339.112 140.135C338.169 165.947 362.933 187.931 394.424 189.239C425.915 190.546 452.208 170.681 453.151 144.87Z" fill="#FAAA00"/>
<path d="M397.336 193.129H396.068C362.651 192.571 335.449 169.421 335.449 141.525C335.449 130.053 339.901 119.33 348.334 110.486C359.922 98.3232 377.395 91.5075 396.178 91.8602C429.594 92.4333 456.782 115.584 456.782 143.465C456.782 154.937 452.331 165.661 443.898 174.503C432.571 186.387 415.648 193.145 397.321 193.145L397.336 193.129ZM394.91 99.5422C378.471 99.5422 363.395 105.492 353.419 115.965C346.405 123.325 342.698 132.153 342.698 141.51C342.698 165.22 366.689 184.904 396.191 185.403C413.127 185.756 428.63 179.703 438.84 168.995C445.854 161.636 449.561 152.807 449.561 143.449C449.561 119.741 425.57 100.057 396.068 99.5575H394.91V99.5422Z" fill="#FF7819"/>
<path d="M362.348 145.844C362.348 160.093 377.478 171.947 396.136 172.344C414.793 172.726 429.925 161.489 429.925 147.239C429.925 132.991 414.793 121.136 396.136 120.739C377.478 120.358 362.348 131.595 362.348 145.844Z" fill="#FF7819"/>
<path d="M424.961 149.326L424.41 146.006C426.587 146.652 432.968 145.888 434.911 142.892C435.475 142.034 436.053 141.187 436.647 140.35C438.838 137.251 444.005 129.818 442.683 127.717C441.305 125.661 436.606 125.955 430.529 126.851L436.991 113.91C443.579 112.734 448.677 114.262 452.025 119.667C454.892 124.295 451.157 130.993 441.139 144.611C440.533 145.462 439.936 146.318 439.348 147.181C435.545 152.984 426.023 149.737 424.976 149.34L424.961 149.326Z" fill="#2850AF"/>
<path d="M418.268 54.9891C443.885 65.6832 452.69 92.2568 440.467 113.557C428.244 134.857 399.623 142.803 374.006 132.109C348.39 121.415 337.531 95.4883 349.753 74.1884C361.963 52.9038 392.637 44.3104 418.268 54.9891Z" fill="#2850AF"/>
<path d="M403.026 65.7717C428.754 68.8863 446.006 85.9992 441.583 103.994C437.146 121.988 412.7 134.063 386.986 130.949C361.259 127.835 344.007 110.721 348.43 92.7267C352.867 74.7321 377.313 62.6571 403.026 65.7717Z" fill="#FAC800"/>
<path d="M402.35 68.5183C416.131 70.1935 427.265 76.2454 433.314 84.28C433.714 84.809 431.95 86.3807 433.631 88.79C434.472 89.9946 431.578 90.8178 432.432 93.5059C433.231 96.0465 437.2 95.136 436.222 99.1467C435.96 100.233 437.945 102.422 437.669 103.539C433.618 120.02 411.225 131.067 387.661 128.217C364.097 125.367 380.426 113.836 375.315 97.4868C370.34 81.6073 378.801 65.6692 402.365 68.5183H402.35ZM364.823 103.774C366.145 103.935 367.041 104.816 366.807 105.742C366.573 106.668 365.319 107.299 363.996 107.137C362.673 106.976 361.777 106.095 362.012 105.169C362.246 104.244 363.5 103.613 364.823 103.774Z" fill="#FAAA00"/>
<path d="M364.676 104.375C365.447 104.463 365.957 104.978 365.833 105.521C365.695 106.065 365.213 105.447 364.442 105.359C363.669 105.271 362.912 105.727 363.049 105.198C363.187 104.655 363.918 104.302 364.676 104.39V104.375Z" fill="#FAC800"/>
<path d="M356.876 90.098C357.895 90.2149 358.584 90.9058 358.419 91.6255C358.24 92.3452 357.262 92.8302 356.242 92.6979C355.222 92.58 354.533 91.89 354.698 91.1694C354.877 90.4497 355.856 89.9657 356.876 90.098Z" fill="#FAAA00"/>
<path d="M356.767 90.5529C357.359 90.6257 357.759 91.0224 357.662 91.4336C357.566 91.8447 357.18 91.3751 356.588 91.3013C355.995 91.2285 355.416 91.5812 355.513 91.1691C355.609 90.7579 356.174 90.4791 356.767 90.5529Z" fill="#FAC800"/>
<path d="M371.083 100.175C372.103 100.292 372.792 100.982 372.626 101.702C372.447 102.422 371.468 102.907 370.448 102.775C369.429 102.657 368.74 101.967 368.919 101.247C369.098 100.527 370.063 100.042 371.096 100.175H371.083Z" fill="#FAAA00"/>
<path d="M370.972 100.644C371.564 100.718 371.964 101.115 371.867 101.526C371.771 101.937 371.385 101.468 370.793 101.394C370.2 101.321 369.622 101.673 369.717 101.262C369.814 100.85 370.379 100.572 370.972 100.644Z" fill="#FAC800"/>
<path d="M440.398 96.7517C441.419 96.8696 442.107 97.5596 441.942 98.2803C441.763 99 440.784 99.4839 439.765 99.3527C438.745 99.2348 438.056 98.5438 438.222 97.8241C438.401 97.1044 439.379 96.6195 440.398 96.7517Z" fill="#FAAA00"/>
<path d="M440.286 97.2223C440.879 97.2961 441.278 97.6918 441.182 98.1039C441.086 98.5151 440.699 98.0445 440.107 97.9717C439.515 97.8979 438.936 98.2506 439.032 97.8394C439.129 97.4283 439.694 97.1485 440.286 97.2223Z" fill="#FAC800"/>
<path d="M368.036 80.6526C369.056 80.7696 369.745 81.4605 369.579 82.1802C369.4 82.8999 368.421 83.3849 367.402 83.2526C366.382 83.1347 365.693 82.4447 365.859 81.725C366.038 81.0044 367.016 80.5204 368.036 80.6526Z" fill="#FAAA00"/>
<path d="M367.927 81.1219C368.519 81.1957 368.919 81.5925 368.809 82.0036C368.712 82.4147 368.327 81.9451 367.733 81.8713C367.141 81.7975 366.562 82.1502 366.659 81.7391C366.756 81.328 367.32 81.0491 367.913 81.1219H367.927Z" fill="#FAC800"/>
<path d="M364.991 97.2376C366.011 97.3545 366.7 98.0455 366.521 98.7652C366.342 99.4849 365.363 99.9698 364.344 99.8375C363.324 99.7197 362.635 99.0297 362.8 98.3099C362.979 97.5902 363.957 97.1053 364.977 97.2376H364.991Z" fill="#FAAA00"/>
<path d="M364.881 97.7072C365.475 97.78 365.874 98.1767 365.777 98.5879C365.681 98.9999 365.295 98.5294 364.702 98.4556C364.11 98.3828 363.531 98.7355 363.628 98.3234C363.724 97.9122 364.289 97.6334 364.881 97.7072Z" fill="#FAC800"/>
<path d="M371.481 106.315C373.259 106.535 374.444 107.71 374.14 108.945C373.837 110.178 372.156 111.016 370.379 110.795C368.601 110.575 367.416 109.4 367.719 108.166C368.022 106.932 369.703 106.095 371.481 106.315Z" fill="#FAAA00"/>
<path d="M371.288 107.108C372.307 107.226 372.997 107.916 372.832 108.636C372.652 109.357 372.005 108.534 370.971 108.417C369.951 108.299 368.931 108.916 369.11 108.196C369.29 107.476 370.255 106.992 371.288 107.124V107.108Z" fill="#FAC800"/>
<path d="M360.872 109.737C361.891 109.855 362.58 110.545 362.415 111.265C362.236 111.985 361.258 112.469 360.238 112.337C359.218 112.22 358.529 111.529 358.694 110.809C358.873 110.09 359.839 109.605 360.872 109.737Z" fill="#FAAA00"/>
<path d="M360.762 110.193C361.355 110.266 361.755 110.663 361.658 111.074C361.561 111.486 361.176 111.015 360.584 110.941C359.991 110.869 359.412 111.221 359.509 110.809C359.605 110.398 360.17 110.119 360.762 110.193Z" fill="#FAC800"/>
<path d="M436.692 86.2932C437.712 86.4102 438.401 87.1011 438.236 87.8208C438.057 88.5405 437.078 89.0254 436.058 88.8932C435.039 88.7753 434.35 88.0853 434.515 87.3656C434.694 86.6459 435.672 86.161 436.692 86.2932Z" fill="#FAAA00"/>
<path d="M436.581 86.7487C437.174 86.8225 437.573 87.2182 437.476 87.6303C437.381 88.0415 436.994 87.5709 436.402 87.4981C435.809 87.4243 435.231 87.777 435.327 87.3658C435.424 86.9537 435.988 86.6749 436.581 86.7487Z" fill="#FAC800"/>
<path d="M367.059 112C367.802 112.088 368.312 112.587 368.175 113.116C368.051 113.645 367.334 113.998 366.59 113.894C365.847 113.806 365.336 113.307 365.474 112.778C365.598 112.25 366.314 111.897 367.059 112Z" fill="#FAAA00"/>
<path d="M366.977 112.337C367.405 112.395 367.707 112.675 367.625 112.984C367.556 113.291 367.28 112.94 366.839 112.896C366.412 112.836 365.985 113.101 366.054 112.807C366.122 112.499 366.536 112.307 366.977 112.351V112.337Z" fill="#FAC800"/>
<path d="M353.941 106.506C354.685 106.594 355.195 107.093 355.057 107.622C354.934 108.151 354.217 108.504 353.473 108.401C352.728 108.313 352.219 107.813 352.357 107.285C352.48 106.756 353.197 106.403 353.941 106.506Z" fill="#FAAA00"/>
<path d="M353.86 106.844C354.287 106.902 354.577 107.182 354.508 107.491C354.439 107.798 354.164 107.447 353.723 107.402C353.295 107.343 352.868 107.608 352.937 107.314C353.006 107.006 353.419 106.814 353.86 106.858V106.844Z" fill="#FAC800"/>
<path d="M361.352 94.2839C362.095 94.372 362.605 94.8713 362.468 95.4003C362.344 95.9293 361.627 96.282 360.883 96.1785C360.139 96.0903 359.629 95.591 359.767 95.062C359.891 94.534 360.607 94.1813 361.352 94.2839Z" fill="#FAAA00"/>
<path d="M361.273 94.6221C361.7 94.6805 362.003 94.9594 361.921 95.268C361.852 95.5766 361.576 95.2239 361.135 95.1798C360.707 95.1214 360.281 95.3859 360.349 95.0917C360.418 94.784 360.832 94.5924 361.273 94.6365V94.6221Z" fill="#FAC800"/>
<path d="M367.293 115.584C368.685 115.76 369.636 116.685 369.388 117.655C369.154 118.639 367.817 119.285 366.425 119.124C365.033 118.948 364.082 118.022 364.33 117.053C364.564 116.069 365.901 115.422 367.293 115.584Z" fill="#FAAA00"/>
<path d="M367.129 116.215C367.942 116.318 368.479 116.847 368.341 117.42C368.203 117.993 367.68 117.346 366.881 117.243C366.067 117.141 365.282 117.626 365.42 117.067C365.557 116.494 366.33 116.127 367.142 116.215H367.129Z" fill="#FAC800"/>
<path d="M369.041 89.9811C370.819 90.2015 372.005 91.3764 371.701 92.6098C371.398 93.8441 369.717 94.6817 367.939 94.4613C366.162 94.2408 364.976 93.0659 365.28 91.8316C365.583 90.5973 367.264 89.7606 369.041 89.9811Z" fill="#FAAA00"/>
<path d="M368.85 90.7735C369.87 90.8904 370.559 91.5814 370.394 92.3011C370.215 93.0208 369.567 92.1976 368.533 92.0807C367.513 91.9628 366.494 92.5799 366.673 91.8602C366.852 91.1405 367.831 90.6556 368.85 90.7879V90.7735Z" fill="#FAC800"/>
<path d="M437.559 90.5081C439.337 90.7285 440.522 91.9044 440.218 93.1378C439.915 94.3721 438.235 95.2097 436.457 94.9893C434.679 94.7689 433.494 93.593 433.797 92.3596C434.1 91.1253 435.781 90.2887 437.559 90.5081Z" fill="#FAAA00"/>
<path d="M437.364 91.3013C438.384 91.4192 439.073 92.1092 438.908 92.8289C438.729 93.5496 438.081 92.7264 437.048 92.6095C436.028 92.4916 435.007 93.1088 435.187 92.389C435.366 91.6693 436.331 91.1844 437.364 91.3167V91.3013Z" fill="#FAC800"/>
<path d="M357.016 98.4859C358.793 98.7054 359.979 99.8813 359.675 101.115C359.372 102.349 357.691 103.187 355.914 102.966C354.136 102.746 352.951 101.57 353.254 100.336C353.557 99.1021 355.238 98.2655 357.016 98.4859Z" fill="#FAAA00"/>
<path d="M356.818 99.2789C357.839 99.3968 358.527 100.087 358.362 100.806C358.183 101.527 357.535 100.704 356.502 100.587C355.482 100.469 354.463 101.086 354.642 100.367C354.82 99.6469 355.798 99.162 356.818 99.2942V99.2789Z" fill="#FAC800"/>
<path d="M446.39 94.1221C446.39 94.5782 446.321 95.1504 446.17 95.8116C444.338 104.229 430.378 127.1 397.417 127.1C364.455 127.1 349.917 110.693 345.218 100.233C344.322 98.2352 343.799 96.4585 343.592 95.0622C343.592 95.0622 343.909 105.301 348.566 116.995C348.566 116.995 348.58 116.995 348.58 117.023C354.602 135.489 367.693 153.586 380.812 161.004C386.447 164.162 391.835 164.324 397.954 164.47C404.238 164.618 409.777 162.488 415.193 159.505C427.553 152.704 438.66 133.681 443.566 115.275C446.872 104.082 446.39 94.1221 446.39 94.1221Z" fill="#2850AF"/>
<path d="M394.977 128.731C366.342 128.731 343.055 111.03 343.055 89.29C343.055 67.5492 366.357 49.8335 394.977 49.8335C423.598 49.8335 446.9 67.5339 446.9 89.2747C446.9 111.015 423.598 128.717 394.977 128.717V128.731ZM394.977 54.0645C368.906 54.0645 347.684 69.8703 347.684 89.29C347.684 108.709 368.906 124.515 394.977 124.515C421.049 124.515 442.27 108.709 442.27 89.29C442.27 69.8703 421.063 54.0645 394.977 54.0645Z" fill="#0080FF"/>
</g>
</g>
<defs>
<filter id="filter0_d_16002_3806" x="37.666" y="154.292" width="415.334" height="214.083" filterUnits="userSpaceOnUse" color-interpolation-filters="sRGB">
<feFlood flood-opacity="0" result="BackgroundImageFix"/>
<feColorMatrix in="SourceAlpha" type="matrix" values="0 0 0 0 0 0 0 0 0 0 0 0 0 0 0 0 0 0 127 0" result="hardAlpha"/>
<feOffset dy="16"/>
<feGaussianBlur stdDeviation="8"/>
<feComposite in2="hardAlpha" operator="out"/>
<feColorMatrix type="matrix" values="0 0 0 0 0 0 0 0 0 0 0 0 0 0 0 0 0 0 0.1 0"/>
<feBlend mode="normal" in2="BackgroundImageFix" result="effect1_dropShadow_16002_3806"/>
<feBlend mode="normal" in="SourceGraphic" in2="effect1_dropShadow_16002_3806" result="shape"/>
</filter>
<filter id="filter1_d_16002_3806" x="303.215" y="49.8335" width="185.816" height="190.235" filterUnits="userSpaceOnUse" color-interpolation-filters="sRGB">
<feFlood flood-opacity="0" result="BackgroundImageFix"/>
<feColorMatrix in="SourceAlpha" type="matrix" values="0 0 0 0 0 0 0 0 0 0 0 0 0 0 0 0 0 0 127 0" result="hardAlpha"/>
<feOffset dy="16"/>
<feGaussianBlur stdDeviation="8"/>
<feComposite in2="hardAlpha" operator="out"/>
<feColorMatrix type="matrix" values="0 0 0 0 0 0 0 0 0 0 0 0 0 0 0 0 0 0 0.1 0"/>
<feBlend mode="normal" in2="BackgroundImageFix" result="effect1_dropShadow_16002_3806"/>
<feBlend mode="normal" in="SourceGraphic" in2="effect1_dropShadow_16002_3806" result="shape"/>
</filter>
</defs>
</svg>
