<svg width="30" height="31" viewBox="0 0 30 31" fill="none" xmlns="http://www.w3.org/2000/svg">
<path fill-rule="evenodd" clip-rule="evenodd" d="M3.33375 0.899902H26.6663C27.5504 0.899902 28.3984 1.25114 29.0236 1.87633C29.6488 2.50153 30 3.34949 30 4.23365V27.5662C30 28.4503 29.6488 29.2983 29.0236 29.9235C28.3984 30.5487 27.5504 30.8999 26.6663 30.8999H3.33375C2.44958 30.8999 1.60163 30.5487 0.976433 29.9235C0.351233 29.2983 0 28.4503 0 27.5662V4.23365C0 3.34949 0.351233 2.50153 0.976433 1.87633C1.60163 1.25114 2.44958 0.899902 3.33375 0.899902ZM8.33375 25.8999C8.55466 25.8996 8.7664 25.8116 8.92249 25.6553C9.07858 25.4989 9.16625 25.2871 9.16625 25.0662V13.3999C9.16625 13.179 9.07858 12.9671 8.92249 12.8108C8.7664 12.6545 8.55466 12.5665 8.33375 12.5662H5.83375C5.61263 12.5662 5.40056 12.654 5.2442 12.8104C5.08784 12.9667 5 13.1788 5 13.3999V25.0662C5 25.5274 5.3725 25.8999 5.83375 25.8999H8.33375ZM7.08375 10.8999C6.42071 10.8999 5.78482 10.6365 5.31598 10.1677C4.84714 9.69883 4.58375 9.06294 4.58375 8.3999C4.58375 7.73686 4.84714 7.10098 5.31598 6.63214C5.78482 6.16329 6.42071 5.8999 7.08375 5.8999C7.74679 5.8999 8.38268 6.16329 8.85152 6.63214C9.32036 7.10098 9.58375 7.73686 9.58375 8.3999C9.58375 9.06294 9.32036 9.69883 8.85152 10.1677C8.38268 10.6365 7.74679 10.8999 7.08375 10.8999ZM24.1663 25.8999C24.3874 25.8999 24.5994 25.8121 24.7558 25.6557C24.9122 25.4993 25 25.2873 25 25.0662V17.3999C25.0263 16.121 24.5772 14.8779 23.7397 13.9111C22.9022 12.9442 21.7358 12.3225 20.4662 12.1662C19.5642 12.0839 18.6567 12.2483 17.8408 12.6418C17.0249 13.0352 16.3312 13.6429 15.8337 14.3999V13.3999C15.8337 13.2904 15.8122 13.182 15.7703 13.0808C15.7284 12.9797 15.667 12.8878 15.5896 12.8104C15.5121 12.7329 15.4202 12.6715 15.3191 12.6296C15.2179 12.5877 15.1095 12.5662 15 12.5662H12.5C12.2789 12.5662 12.0668 12.654 11.9104 12.8104C11.7541 12.9667 11.6663 13.1788 11.6663 13.3999V25.0662C11.6663 25.5274 12.04 25.8999 12.5 25.8999H15C15.1095 25.8999 15.2179 25.8783 15.3191 25.8364C15.4202 25.7945 15.5121 25.7331 15.5896 25.6557C15.667 25.5783 15.7284 25.4864 15.7703 25.3852C15.8122 25.2841 15.8337 25.1756 15.8337 25.0662V18.8162C15.8337 18.1531 16.0971 17.5172 16.566 17.0484C17.0348 16.5795 17.6707 16.3162 18.3337 16.3162C18.9968 16.3162 19.6327 16.5795 20.1015 17.0484C20.5704 17.5172 20.8337 18.1531 20.8337 18.8162V25.0662C20.8337 25.5274 21.2063 25.8999 21.6663 25.8999H24.1663Z" fill="white"/>
</svg>
