<svg xmlns="http://www.w3.org/2000/svg" xmlns:xlink="http://www.w3.org/1999/xlink" width="500" zoomAndPan="magnify" viewBox="0 0 375 374.999991" height="500" preserveAspectRatio="xMidYMid meet" version="1.0"><defs><clipPath id="aca8f32ecd"><path d="M 7.847656 50 L 367.097656 50 L 367.097656 325.984375 L 7.847656 325.984375 Z M 7.847656 50 " clip-rule="nonzero"/></clipPath></defs><g clip-path="url(#aca8f32ecd)"><path fill="#7f5efd" d="M 342.394531 161.824219 L 342.394531 131.679688 C 342.394531 119.132812 332.128906 108.867188 319.582031 108.867188 L 115.066406 108.867188 L 261.453125 92.894531 L 261.453125 66.332031 C 261.453125 61.101562 259.191406 56.601562 254.992188 53.480469 C 250.792969 50.359375 245.835938 49.488281 240.824219 50.996094 L 59.925781 105.433594 C 53.050781 107.503906 48.527344 113.585938 48.527344 120.769531 L 48.527344 172.40625 L 109.988281 172.40625 C 120.523438 172.40625 129.136719 181.023438 129.136719 191.550781 C 129.136719 202.085938 120.519531 210.699219 109.988281 210.699219 L 26.992188 210.699219 C 16.464844 210.703125 7.847656 219.320312 7.847656 229.851562 C 7.847656 240.378906 16.464844 248.996094 26.992188 248.996094 L 164.085938 248.996094 C 174.621094 248.996094 183.234375 257.613281 183.234375 268.140625 C 183.234375 278.671875 174.617188 287.289062 164.085938 287.289062 L 108.320312 287.289062 C 97.785156 287.289062 89.175781 295.90625 89.175781 306.433594 C 89.175781 316.96875 97.792969 325.582031 108.320312 325.582031 L 319.574219 325.582031 C 332.121094 325.582031 342.386719 315.316406 342.386719 302.769531 L 342.386719 272.625 L 300.070312 272.625 C 296.335938 272.625 293.285156 269.570312 293.285156 265.835938 C 293.285156 262.101562 296.335938 259.046875 300.070312 259.046875 L 354.214844 259.046875 C 361.339844 259.046875 367.15625 253.234375 367.15625 246.105469 L 367.15625 188.34375 C 367.15625 181.214844 361.347656 175.402344 354.214844 175.402344 L 276.613281 175.402344 C 272.878906 175.402344 269.820312 172.347656 269.820312 168.613281 C 269.820312 164.878906 272.871094 161.820312 276.613281 161.820312 L 342.394531 161.820312 Z M 274.546875 205.351562 C 267.984375 205.351562 262.664062 210.671875 262.664062 217.234375 C 262.664062 223.796875 267.984375 229.117188 274.546875 229.117188 C 281.109375 229.117188 286.429688 223.796875 286.429688 217.234375 C 286.429688 210.667969 281.109375 205.351562 274.546875 205.351562 Z M 246.300781 217.226562 C 246.300781 201.691406 259.007812 188.980469 274.546875 188.980469 L 353.582031 188.980469 L 353.582031 245.472656 L 274.546875 245.472656 C 259.015625 245.472656 246.300781 232.765625 246.300781 217.226562 Z M 246.300781 217.226562 " fill-opacity="1" fill-rule="evenodd"/></g></svg>